<svg width="10" height="10" viewBox="0 0 10 10" fill="none" xmlns="http://www.w3.org/2000/svg">
<path d="M5.00195 3.82204L7.94823 0.875766C8.27367 0.550329 8.80131 0.550329 9.12674 0.875766V0.875766C9.45218 1.2012 9.45218 1.72884 9.12674 2.05428L6.18046 5.00056L9.12674 7.94683C9.45218 8.27227 9.45218 8.79991 9.12674 9.12534V9.12534C8.80131 9.45078 8.27367 9.45078 7.94823 9.12534L5.00195 6.17907L2.05568 9.12534C1.73024 9.45078 1.2026 9.45078 0.877164 9.12534V9.12534C0.551727 8.79991 0.551727 8.27227 0.877164 7.94683L3.82344 5.00056L0.877164 2.05428C0.551727 1.72884 0.551727 1.2012 0.877164 0.875766V0.875766C1.2026 0.550329 1.73024 0.550329 2.05568 0.875766L5.00195 3.82204Z" fill="white"/>
</svg>
