<svg width="54" height="54" viewBox="0 0 54 54" fill="none" xmlns="http://www.w3.org/2000/svg">
<g clip-path="url(#clip0_482_6800)">
<path d="M53.1 27.9036H37.377C37.0623 27.9037 36.7705 28.0682 36.6075 28.3374C36.4445 28.6066 36.4339 28.9414 36.5796 29.2203C38.9453 33.7644 37.793 39.3451 33.8211 42.5807C29.8492 45.8163 24.1508 45.8163 20.1789 42.5807C16.207 39.3451 15.0548 33.7644 17.4204 29.2203C17.5661 28.9414 17.5555 28.6066 17.3925 28.3374C17.2295 28.0682 16.9377 27.9037 16.623 27.9036H0.9C0.402943 27.9036 0 28.3065 0 28.8036C0 29.3006 0.402943 29.7036 0.9 29.7036H15.2325C13.2242 34.9506 14.9324 40.8932 19.4204 44.2729C23.9083 47.6524 30.0917 47.6524 34.5796 44.2729C39.0676 40.8932 40.7758 34.9506 38.7675 29.7036H53.1C53.5971 29.7036 54 29.3006 54 28.8036C54 28.3065 53.5971 27.9036 53.1 27.9036Z" fill="#E4772F" stroke="white" stroke-width="0.4"/>
<path d="M32.1916 4.46184C29.5222 7.55514 25.9951 13.2179 24.3508 22.6337C23.9044 24.8948 22.7939 26.9714 21.1612 28.598C18.22 31.6608 18.1433 36.4751 20.9855 39.63C23.8277 42.7848 28.6238 43.2094 31.9759 40.6027C35.328 37.9959 36.0981 33.2431 33.7405 29.7113C31.8849 27.0928 31.0556 23.8839 31.4104 20.6942C31.9433 15.7675 33.2146 10.949 35.1814 6.40044C35.5564 5.58772 35.2774 4.62292 34.5263 4.13596C33.7753 3.649 32.7806 3.78784 32.1916 4.46184ZM29.6302 20.4593C29.233 24.0795 30.1601 27.721 32.2402 30.7103C34.0738 33.4571 33.475 37.1536 30.8682 39.1811C28.2612 41.2087 24.5311 40.8789 22.3203 38.4255C20.1095 35.9722 20.1684 32.228 22.4554 29.8454C24.3374 27.9611 25.6138 25.5578 26.1211 22.9433C27.697 13.9325 31.0324 8.55864 33.5515 5.63724C31.5071 10.3529 30.1852 15.3497 29.6302 20.4593Z" fill="#E4772F" stroke="white" stroke-width="0.4"/>
<path d="M5.4 35.1036C5.89706 35.1036 6.3 34.7007 6.3 34.2036C6.3 33.7065 5.89706 33.3036 5.4 33.3036C4.90295 33.3036 4.5 33.7065 4.5 34.2036C4.5 34.7007 4.90295 35.1036 5.4 35.1036Z" fill="#E4772F" stroke="white" stroke-width="0.4"/>
<path d="M10.8004 35.1035C11.2975 35.1035 11.7004 34.7005 11.7004 34.2035C11.7004 33.7064 11.2975 33.3035 10.8004 33.3035C10.3033 33.3035 9.90039 33.7064 9.90039 34.2035C9.90039 34.7005 10.3033 35.1035 10.8004 35.1035Z" fill="#E4772F" stroke="white" stroke-width="0.4"/>
<path d="M2.70005 38.7036C3.19711 38.7036 3.60005 38.3006 3.60005 37.8036C3.60005 37.3065 3.19711 36.9036 2.70005 36.9036C2.203 36.9036 1.80005 37.3065 1.80005 37.8036C1.80005 38.3006 2.203 38.7036 2.70005 38.7036Z" fill="#E4772F" stroke="white" stroke-width="0.4"/>
<path d="M8.09995 38.7036C8.59701 38.7036 8.99995 38.3006 8.99995 37.8036C8.99995 37.3065 8.59701 36.9036 8.09995 36.9036C7.6029 36.9036 7.19995 37.3065 7.19995 37.8036C7.19995 38.3006 7.6029 38.7036 8.09995 38.7036Z" fill="#E4772F" stroke="white" stroke-width="0.4"/>
<path d="M5.4 42.3C5.89706 42.3 6.3 41.8971 6.3 41.4C6.3 40.9029 5.89706 40.5 5.4 40.5C4.90295 40.5 4.5 40.9029 4.5 41.4C4.5 41.8971 4.90295 42.3 5.4 42.3Z" fill="#E4772F" stroke="white" stroke-width="0.4"/>
<path d="M10.8004 42.3002C11.2975 42.3002 11.7004 41.8973 11.7004 41.4002C11.7004 40.9032 11.2975 40.5002 10.8004 40.5002C10.3033 40.5002 9.90039 40.9032 9.90039 41.4002C9.90039 41.8973 10.3033 42.3002 10.8004 42.3002Z" fill="#E4772F" stroke="white" stroke-width="0.4"/>
<path d="M2.70005 45.9035C3.19711 45.9035 3.60005 45.5006 3.60005 45.0035C3.60005 44.5064 3.19711 44.1035 2.70005 44.1035C2.203 44.1035 1.80005 44.5064 1.80005 45.0035C1.80005 45.5006 2.203 45.9035 2.70005 45.9035Z" fill="#E4772F" stroke="white" stroke-width="0.4"/>
<path d="M8.09995 45.9035C8.59701 45.9035 8.99995 45.5006 8.99995 45.0035C8.99995 44.5064 8.59701 44.1035 8.09995 44.1035C7.6029 44.1035 7.19995 44.5064 7.19995 45.0035C7.19995 45.5006 7.6029 45.9035 8.09995 45.9035Z" fill="#E4772F" stroke="white" stroke-width="0.4"/>
<path d="M13.4996 45.9038C13.9967 45.9038 14.3996 45.5008 14.3996 45.0038C14.3996 44.5067 13.9967 44.1038 13.4996 44.1038C13.0025 44.1038 12.5996 44.5067 12.5996 45.0038C12.5996 45.5008 13.0025 45.9038 13.4996 45.9038Z" fill="#E4772F" stroke="white" stroke-width="0.4"/>
<path d="M5.4 49.5036C5.89706 49.5036 6.3 49.1007 6.3 48.6036C6.3 48.1065 5.89706 47.7036 5.4 47.7036C4.90295 47.7036 4.5 48.1065 4.5 48.6036C4.5 49.1007 4.90295 49.5036 5.4 49.5036Z" fill="#E4772F" stroke="white" stroke-width="0.4"/>
<path d="M10.8004 49.5034C11.2975 49.5034 11.7004 49.1004 11.7004 48.6034C11.7004 48.1063 11.2975 47.7034 10.8004 47.7034C10.3033 47.7034 9.90039 48.1063 9.90039 48.6034C9.90039 49.1004 10.3033 49.5034 10.8004 49.5034Z" fill="#E4772F" stroke="white" stroke-width="0.4"/>
<path d="M16.2 49.5036C16.6971 49.5036 17.1 49.1007 17.1 48.6036C17.1 48.1065 16.6971 47.7036 16.2 47.7036C15.703 47.7036 15.3 48.1065 15.3 48.6036C15.3 49.1007 15.703 49.5036 16.2 49.5036Z" fill="#E4772F" stroke="white" stroke-width="0.4"/>
<path d="M21.6 49.5036C22.097 49.5036 22.5 49.1007 22.5 48.6036C22.5 48.1065 22.097 47.7036 21.6 47.7036C21.1029 47.7036 20.7 48.1065 20.7 48.6036C20.7 49.1007 21.1029 49.5036 21.6 49.5036Z" fill="#E4772F" stroke="white" stroke-width="0.4"/>
<path d="M26.9996 49.5034C27.4967 49.5034 27.8996 49.1004 27.8996 48.6034C27.8996 48.1063 27.4967 47.7034 26.9996 47.7034C26.5025 47.7034 26.0996 48.1063 26.0996 48.6034C26.0996 49.1004 26.5025 49.5034 26.9996 49.5034Z" fill="#E4772F" stroke="white" stroke-width="0.4"/>
<path d="M48.6 35.1036C49.097 35.1036 49.5 34.7007 49.5 34.2036C49.5 33.7065 49.097 33.3036 48.6 33.3036C48.1029 33.3036 47.7 33.7065 47.7 34.2036C47.7 34.7007 48.1029 35.1036 48.6 35.1036Z" fill="#E4772F" stroke="white" stroke-width="0.4"/>
<path d="M43.2 35.1036C43.6971 35.1036 44.1 34.7007 44.1 34.2036C44.1 33.7065 43.6971 33.3036 43.2 33.3036C42.703 33.3036 42.3 33.7065 42.3 34.2036C42.3 34.7007 42.703 35.1036 43.2 35.1036Z" fill="#E4772F" stroke="white" stroke-width="0.4"/>
<path d="M51.3004 38.7036C51.7975 38.7036 52.2004 38.3006 52.2004 37.8036C52.2004 37.3065 51.7975 36.9036 51.3004 36.9036C50.8033 36.9036 50.4004 37.3065 50.4004 37.8036C50.4004 38.3006 50.8033 38.7036 51.3004 38.7036Z" fill="#E4772F" stroke="white" stroke-width="0.4"/>
<path d="M45.9 38.7036C46.3971 38.7036 46.8 38.3006 46.8 37.8036C46.8 37.3065 46.3971 36.9036 45.9 36.9036C45.4029 36.9036 45 37.3065 45 37.8036C45 38.3006 45.4029 38.7036 45.9 38.7036Z" fill="#E4772F" stroke="white" stroke-width="0.4"/>
<path d="M48.6 42.3C49.097 42.3 49.5 41.8971 49.5 41.4C49.5 40.9029 49.097 40.5 48.6 40.5C48.1029 40.5 47.7 40.9029 47.7 41.4C47.7 41.8971 48.1029 42.3 48.6 42.3Z" fill="#E4772F" stroke="white" stroke-width="0.4"/>
<path d="M43.2 42.3C43.6971 42.3 44.1 41.8971 44.1 41.4C44.1 40.9029 43.6971 40.5 43.2 40.5C42.703 40.5 42.3 40.9029 42.3 41.4C42.3 41.8971 42.703 42.3 43.2 42.3Z" fill="#E4772F" stroke="white" stroke-width="0.4"/>
<path d="M51.3004 45.9038C51.7975 45.9038 52.2004 45.5008 52.2004 45.0038C52.2004 44.5067 51.7975 44.1038 51.3004 44.1038C50.8033 44.1038 50.4004 44.5067 50.4004 45.0038C50.4004 45.5008 50.8033 45.9038 51.3004 45.9038Z" fill="#E4772F" stroke="white" stroke-width="0.4"/>
<path d="M45.9 45.9035C46.3971 45.9035 46.8 45.5006 46.8 45.0035C46.8 44.5064 46.3971 44.1035 45.9 44.1035C45.4029 44.1035 45 44.5064 45 45.0035C45 45.5006 45.4029 45.9035 45.9 45.9035Z" fill="#E4772F" stroke="white" stroke-width="0.4"/>
<path d="M40.4996 45.9038C40.9967 45.9038 41.3996 45.5008 41.3996 45.0038C41.3996 44.5067 40.9967 44.1038 40.4996 44.1038C40.0025 44.1038 39.5996 44.5067 39.5996 45.0038C39.5996 45.5008 40.0025 45.9038 40.4996 45.9038Z" fill="#E4772F" stroke="white" stroke-width="0.4"/>
<path d="M48.6 49.5036C49.097 49.5036 49.5 49.1007 49.5 48.6036C49.5 48.1065 49.097 47.7036 48.6 47.7036C48.1029 47.7036 47.7 48.1065 47.7 48.6036C47.7 49.1007 48.1029 49.5036 48.6 49.5036Z" fill="#E4772F" stroke="white" stroke-width="0.4"/>
<path d="M43.2 49.5036C43.6971 49.5036 44.1 49.1007 44.1 48.6036C44.1 48.1065 43.6971 47.7036 43.2 47.7036C42.703 47.7036 42.3 48.1065 42.3 48.6036C42.3 49.1007 42.703 49.5036 43.2 49.5036Z" fill="#E4772F" stroke="white" stroke-width="0.4"/>
<path d="M37.8004 49.5034C38.2975 49.5034 38.7004 49.1004 38.7004 48.6034C38.7004 48.1063 38.2975 47.7034 37.8004 47.7034C37.3033 47.7034 36.9004 48.1063 36.9004 48.6034C36.9004 49.1004 37.3033 49.5034 37.8004 49.5034Z" fill="#E4772F" stroke="white" stroke-width="0.4"/>
<path d="M32.4 49.5036C32.8971 49.5036 33.3 49.1007 33.3 48.6036C33.3 48.1065 32.8971 47.7036 32.4 47.7036C31.9029 47.7036 31.5 48.1065 31.5 48.6036C31.5 49.1007 31.9029 49.5036 32.4 49.5036Z" fill="#E4772F" stroke="white" stroke-width="0.4"/>
<path d="M2.70005 53.1036C3.19711 53.1036 3.60005 52.7007 3.60005 52.2036C3.60005 51.7065 3.19711 51.3036 2.70005 51.3036C2.203 51.3036 1.80005 51.7065 1.80005 52.2036C1.80005 52.7007 2.203 53.1036 2.70005 53.1036Z" fill="#E4772F" stroke="white" stroke-width="0.4"/>
<path d="M8.09995 53.1036C8.59701 53.1036 8.99995 52.7007 8.99995 52.2036C8.99995 51.7065 8.59701 51.3036 8.09995 51.3036C7.6029 51.3036 7.19995 51.7065 7.19995 52.2036C7.19995 52.7007 7.6029 53.1036 8.09995 53.1036Z" fill="#E4772F" stroke="white" stroke-width="0.4"/>
<path d="M13.4996 53.1035C13.9967 53.1035 14.3996 52.7005 14.3996 52.2035C14.3996 51.7064 13.9967 51.3035 13.4996 51.3035C13.0025 51.3035 12.5996 51.7064 12.5996 52.2035C12.5996 52.7005 13.0025 53.1035 13.4996 53.1035Z" fill="#E4772F" stroke="white" stroke-width="0.4"/>
<path d="M18.9 53.1036C19.3971 53.1036 19.8 52.7007 19.8 52.2036C19.8 51.7065 19.3971 51.3036 18.9 51.3036C18.4029 51.3036 18 51.7065 18 52.2036C18 52.7007 18.4029 53.1036 18.9 53.1036Z" fill="#E4772F" stroke="white" stroke-width="0.4"/>
<path d="M24.3004 53.1035C24.7975 53.1035 25.2004 52.7005 25.2004 52.2035C25.2004 51.7064 24.7975 51.3035 24.3004 51.3035C23.8033 51.3035 23.4004 51.7064 23.4004 52.2035C23.4004 52.7005 23.8033 53.1035 24.3004 53.1035Z" fill="#E4772F" stroke="white" stroke-width="0.4"/>
<path d="M45.9 53.1036C46.3971 53.1036 46.8 52.7007 46.8 52.2036C46.8 51.7065 46.3971 51.3036 45.9 51.3036C45.4029 51.3036 45 51.7065 45 52.2036C45 52.7007 45.4029 53.1036 45.9 53.1036Z" fill="#E4772F" stroke="white" stroke-width="0.4"/>
<path d="M51.3004 53.1035C51.7975 53.1035 52.2004 52.7005 52.2004 52.2035C52.2004 51.7064 51.7975 51.3035 51.3004 51.3035C50.8033 51.3035 50.4004 51.7064 50.4004 52.2035C50.4004 52.7005 50.8033 53.1035 51.3004 53.1035Z" fill="#E4772F" stroke="white" stroke-width="0.4"/>
<path d="M40.4996 53.1035C40.9967 53.1035 41.3996 52.7005 41.3996 52.2035C41.3996 51.7064 40.9967 51.3035 40.4996 51.3035C40.0025 51.3035 39.5996 51.7064 39.5996 52.2035C39.5996 52.7005 40.0025 53.1035 40.4996 53.1035Z" fill="#E4772F" stroke="white" stroke-width="0.4"/>
<path d="M35.1 53.1036C35.597 53.1036 36 52.7007 36 52.2036C36 51.7065 35.597 51.3036 35.1 51.3036C34.6029 51.3036 34.2 51.7065 34.2 52.2036C34.2 52.7007 34.6029 53.1036 35.1 53.1036Z" fill="#E4772F" stroke="white" stroke-width="0.4"/>
<path d="M29.7 53.1036C30.1971 53.1036 30.6 52.7007 30.6 52.2036C30.6 51.7065 30.1971 51.3036 29.7 51.3036C29.203 51.3036 28.8 51.7065 28.8 52.2036C28.8 52.7007 29.203 53.1036 29.7 53.1036Z" fill="#E4772F" stroke="white" stroke-width="0.4"/>
<path d="M10.6431 2.10557C8.5182 4.86857 4.5483 11.4242 4.5483 14.7839C4.51679 17.8508 6.13494 20.6984 8.78589 22.2411C11.4369 23.7837 14.7121 23.7837 17.363 22.2411C20.014 20.6984 21.6321 17.8508 21.6006 14.7839C21.6006 11.4242 17.6307 4.86857 15.5058 2.10557C14.9269 1.34799 14.0279 0.903564 13.0744 0.903564C12.121 0.903564 11.222 1.34799 10.6431 2.10557ZM13.074 21.6023C9.33564 21.5726 6.32684 18.5223 6.3483 14.7839C6.3483 12.2171 9.67827 6.30947 12.0705 3.20267C12.3087 2.88855 12.6802 2.70404 13.0744 2.70404C13.4687 2.70404 13.8402 2.88855 14.0784 3.20267C16.4706 6.30947 19.8006 12.2171 19.8006 14.7839C19.8215 18.5224 16.8125 21.5726 13.074 21.6023Z" fill="#E4772F" stroke="white" stroke-width="0.4"/>
<path d="M12.205 17.3388C11.4267 17.2231 10.7466 16.7521 10.3645 16.0644C10.0627 15.0791 10.152 14.0154 10.6138 13.0944C10.8115 12.6524 10.6242 12.1332 10.1898 11.9194C9.7556 11.7056 9.22991 11.8735 9.00014 12.2997C8.9497 12.3996 7.79409 14.7855 8.7301 16.8123C9.32909 18.0029 10.4519 18.8435 11.7631 19.083C12.0748 19.1619 12.405 19.0685 12.6292 18.838C12.8535 18.6075 12.9376 18.2748 12.8502 17.9654C12.7627 17.656 12.5167 17.4168 12.205 17.3379V17.3388Z" fill="#E4772F" stroke="white" stroke-width="0.4"/>
<path d="M39.8631 16.8395C40.2146 17.1909 40.7843 17.1909 41.1357 16.8395L42.0357 15.9395C42.3768 15.5864 42.3719 15.0251 42.0247 14.6779C41.6776 14.3308 41.1163 14.3259 40.7631 14.6669L39.8631 15.5669C39.5118 15.9184 39.5118 16.4881 39.8631 16.8395Z" fill="#E4772F" stroke="white" stroke-width="0.4"/>
<path d="M36.2632 19.1667L35.3632 20.0667C35.0222 20.4198 35.027 20.9811 35.3742 21.3284C35.7213 21.6755 36.2827 21.6804 36.6358 21.3393L37.5358 20.4393C37.8769 20.0862 37.872 19.5249 37.5248 19.1776C37.1777 18.8305 36.6164 18.8256 36.2632 19.1667Z" fill="#E4772F" stroke="white" stroke-width="0.4"/>
<path d="M39.8632 20.4393C40.8172 21.3942 40.9315 21.603 41.3995 21.603C41.7635 21.603 42.0916 21.3836 42.2308 21.0474C42.3701 20.7111 42.2931 20.3241 42.0358 20.0667L41.1358 19.1667C40.7827 18.8256 40.2213 18.8305 39.8742 19.1776C39.527 19.5249 39.5222 20.0862 39.8632 20.4393Z" fill="#E4772F" stroke="white" stroke-width="0.4"/>
<path d="M37.5358 15.5667L36.6358 14.6667C36.2827 14.3256 35.7213 14.3305 35.3742 14.6776C35.027 15.0249 35.0222 15.5862 35.3632 15.9393L36.2632 16.8393C36.6164 17.1804 37.1777 17.1755 37.5248 16.8284C37.872 16.4811 37.8769 15.9198 37.5358 15.5667Z" fill="#E4772F" stroke="white" stroke-width="0.4"/>
<path d="M45.8998 7.20412C46.3768 7.20412 46.5073 6.96922 47.4361 6.04042C47.6701 5.81445 47.7639 5.47983 47.6816 5.16517C47.5992 4.8505 47.3535 4.60476 47.0388 4.52239C46.7241 4.44004 46.3895 4.53386 46.1635 4.76782L45.2635 5.66782C45.0062 5.92522 44.9293 6.31226 45.0685 6.64851C45.2078 6.98477 45.5359 7.20404 45.8998 7.20412Z" fill="#E4772F" stroke="white" stroke-width="0.4"/>
<path d="M40.7635 11.4393C41.115 11.7906 41.6847 11.7906 42.0361 11.4393L42.9361 10.5393C43.2772 10.1862 43.2723 9.62486 42.9251 9.27764C42.578 8.93049 42.0167 8.92561 41.6635 9.26665L40.7635 10.1667C40.4122 10.5181 40.4122 11.0878 40.7635 11.4393Z" fill="#E4772F" stroke="white" stroke-width="0.4"/>
<path d="M45.2632 10.5393C46.2172 11.4942 46.3315 11.703 46.7995 11.703C47.1635 11.703 47.4916 11.4836 47.6308 11.1474C47.7702 10.8111 47.6931 10.4241 47.4358 10.1667L46.5358 9.26665C46.1827 8.92561 45.6213 8.93049 45.2742 9.27764C44.9271 9.62486 44.9222 10.1862 45.2632 10.5393Z" fill="#E4772F" stroke="white" stroke-width="0.4"/>
<path d="M41.6632 6.93941C42.0164 7.28048 42.5777 7.2756 42.9249 6.92844C43.2721 6.58128 43.2769 6.01995 42.9358 5.66681L42.0358 4.76681C41.6827 4.42572 41.1213 4.4306 40.7742 4.77777C40.4271 5.12493 40.4222 5.68626 40.7632 6.03941L41.6632 6.93941Z" fill="#E4772F" stroke="white" stroke-width="0.4"/>
</g>
<defs>
<clipPath id="clip0_482_6800">
<rect width="54" height="54" fill="white"/>
</clipPath>
</defs>
</svg>
