<svg width="54" height="54" viewBox="0 0 54 54" fill="none" xmlns="http://www.w3.org/2000/svg">
<g clip-path="url(#clip0_482_6813)">
<path d="M45.3415 45.8319C42.4178 45.0523 40.376 42.3942 40.376 39.3691V24.1752C45.2479 19.4763 48.5806 13.2925 49.7223 6.43998L49.9172 5.26949L48.032 4.95614L47.8381 6.12557C46.7259 12.7928 43.4172 18.7959 38.572 23.2656H38.465V23.3621C36.2684 25.3695 33.7603 27.0645 30.9999 28.364L29.6517 28.9983H24.3231C21.0401 27.6225 18.082 25.6696 15.5337 23.2981V23.2666H15.4985C10.5979 18.6917 7.24707 12.5367 6.2294 5.7519L5.96858 4.01483L4.07869 4.29769L4.33951 6.03476C5.38196 12.9867 8.71932 19.3243 13.6228 24.1294V39.3681C13.6228 42.3931 11.5809 45.0513 8.65814 45.8319L0 48.1404L0.493067 49.9863L9.15156 47.6778C12.9093 46.6746 15.5341 43.2579 15.5341 39.3691V25.8455C17.9877 27.8931 20.7508 29.5957 23.7692 30.8378C23.8847 30.8865 24.009 30.9103 24.1332 30.9103H29.8661C30.0065 30.9103 30.145 30.8797 30.273 30.8195L31.8133 30.0943C34.2238 28.9602 36.4511 27.5403 38.4652 25.8893V39.3689C38.4652 43.2577 41.0899 46.6744 44.8487 47.6777L53.5072 49.986L54 48.1404L45.3415 45.8319Z" fill="#E4772F" stroke="white" stroke-width="0.4"/>
<path d="M33.0121 13.9897C32.6329 14.37 32.0892 14.5419 31.5579 14.456L27.5889 13.7948C27.1981 13.7298 26.8025 13.7298 26.4118 13.7948L22.4437 14.456C21.9144 14.5429 21.3687 14.37 20.9886 13.9897L19.6366 15.3408C20.4525 16.1558 21.6192 16.5313 22.758 16.3411L26.727 15.68C26.9085 15.6504 27.0939 15.6504 27.2754 15.68L31.2444 16.3411C31.4394 16.3736 31.6342 16.3899 31.8292 16.3899C32.7712 16.3899 33.6885 16.0163 34.364 15.3408L33.0121 13.9897Z" fill="#E4772F" stroke="white" stroke-width="0.4"/>
<path d="M24.6621 17.1279L25.5163 18.8372C26.4461 18.3728 27.5552 18.3728 28.484 18.8372L29.3382 17.1279C27.8744 16.3969 26.1259 16.3969 24.6621 17.1279Z" fill="#E4772F" stroke="white" stroke-width="0.4"/>
<path d="M33.5175 34.1646C32.6011 33.2473 31.2291 32.9665 30.0243 33.4471L27.0003 34.6577L23.9752 33.4471C22.7694 32.9665 21.3994 33.2475 20.4822 34.1646C19.7302 34.9166 19.3949 35.9895 19.5859 37.0349L20.9417 44.4922C21.2216 46.0334 22.5622 47.1522 24.1291 47.1522H25.099C25.7916 47.1522 26.451 46.9363 27.0003 46.536C27.5497 46.9363 28.209 47.1522 28.9017 47.1522H29.8715C31.4385 47.1522 32.778 46.0334 33.0579 44.4922L34.4137 37.0358C34.6039 35.9895 34.2694 34.9166 33.5175 34.1646ZM32.5353 36.6928L31.1796 44.1502C31.0639 44.7827 30.5146 45.2413 29.8715 45.2413H28.9017C28.5462 45.2413 28.2128 45.1028 27.9625 44.8525L27.6759 44.5658C27.4895 44.3795 27.2449 44.2859 27.0003 44.2859C26.7558 44.2859 26.5112 44.3796 26.3248 44.5658L26.0381 44.8525C25.7869 45.1028 25.4534 45.2413 25.099 45.2413H24.1291C23.4871 45.2413 22.9367 44.7828 22.8221 44.1502L21.4663 36.6919C21.3879 36.2639 21.5255 35.8252 21.8341 35.5157C22.2106 35.1402 22.7724 35.0226 23.2664 35.2214L26.6458 36.5734C26.8732 36.6652 27.1284 36.6652 27.3557 36.5734L30.7342 35.2214C31.2274 35.0227 31.7899 35.1392 32.1675 35.5157C32.4761 35.8243 32.6136 36.2638 32.5353 36.6928Z" fill="#E4772F" stroke="white" stroke-width="0.4"/>
<path d="M29.8672 37.5995H27.9563V39.5105H29.8672V37.5995Z" fill="#E4772F" stroke="white" stroke-width="0.4"/>
<path d="M26.0456 37.5995H24.1348V39.5105H26.0456V37.5995Z" fill="#E4772F" stroke="white" stroke-width="0.4"/>
<path d="M29.8672 41.421H27.9563V43.3319H29.8672V41.421Z" fill="#E4772F" stroke="white" stroke-width="0.4"/>
<path d="M26.0456 41.421H24.1348V43.3319H26.0456V41.421Z" fill="#E4772F" stroke="white" stroke-width="0.4"/>
</g>
<defs>
<clipPath id="clip0_482_6813">
<rect width="54" height="54" fill="white"/>
</clipPath>
</defs>
</svg>
