<svg width="14" height="20" viewBox="0 0 14 20" fill="none" xmlns="http://www.w3.org/2000/svg">
<path d="M13.682 5.51724L9.08203 0.917236C9.00703 0.842236 8.90547 0.800049 8.79922 0.800049H1.59609C0.825781 0.800049 0.199219 1.42505 0.199219 2.19224V17.561C0.199219 18.4641 0.936719 19.2 1.84453 19.2H12.1539C13.0617 19.2 13.7992 18.4641 13.7992 17.561V5.80005C13.7992 5.6938 13.757 5.59224 13.682 5.51724ZM3.79922 14.8C3.57891 14.8 3.39922 14.6204 3.39922 14.4C3.39922 14.1797 3.57891 14 3.79922 14C4.01953 14 4.19922 14.1797 4.19922 14.4C4.19922 14.6204 4.01953 14.8 3.79922 14.8ZM3.79922 12.8C3.57891 12.8 3.39922 12.6204 3.39922 12.4C3.39922 12.1797 3.57891 12 3.79922 12C4.01953 12 4.19922 12.1797 4.19922 12.4C4.19922 12.6204 4.01953 12.8 3.79922 12.8ZM3.79922 10.8C3.57891 10.8 3.39922 10.6204 3.39922 10.4C3.39922 10.1797 3.57891 10 3.79922 10C4.01953 10 4.19922 10.1797 4.19922 10.4C4.19922 10.6204 4.01953 10.8 3.79922 10.8ZM10.1992 14.8H5.39922V14H10.1992V14.8ZM10.1992 12.8H5.39922V12H10.1992V12.8ZM10.1992 10.8H5.39922V10H10.1992V10.8ZM9.66641 5.60005C9.29766 5.60005 8.99922 5.30161 8.99922 4.93286V1.96567L12.6336 5.60005H9.66641Z" fill="inherit"/>
</svg>
