<svg width="54" height="54" viewBox="0 0 54 54" fill="none" xmlns="http://www.w3.org/2000/svg">
<g clip-path="url(#clip0_482_6814)">
<path d="M52.4729 18.0945C52.425 18.1213 47.1907 20.7 42.075 20.7C36.8552 20.7 29.7638 18.9448 29.6939 18.9268C29.3973 18.8525 29.0831 18.9338 28.8598 19.143C28.6366 19.3521 28.5346 19.6602 28.5895 19.9613L30.1949 28.8H18.5753L17.2622 17.6401C17.0307 15.6753 17.6502 13.7052 18.9647 12.2265C20.2786 10.7477 22.1625 9.90088 24.1409 9.89998H51.975V8.09998H24.1409C21.6493 8.10086 19.2767 9.16657 17.6208 11.0285C15.965 12.8905 15.1836 15.3712 15.4737 17.8462L16.7625 28.8H15.975C15.4781 28.8 15.075 29.203 15.075 29.7V37.8H0.675049V39.6H4.27505V52.2H0.675049V54H41.175C41.6721 54 42.075 53.597 42.075 53.1H50.175V51.3H42.075V41.4H50.175V39.6H42.075V38.7C42.075 38.203 41.6721 37.8 41.175 37.8H33.975V29.7C33.975 29.203 33.5721 28.8 33.075 28.8H32.0265L30.6054 20.9869C34.3701 21.8637 38.2118 22.3704 42.075 22.5C45.9603 22.3418 49.7721 21.3921 53.2772 19.7099L52.4729 18.0945ZM6.07505 39.6H7.87505V52.2H6.07505V39.6ZM40.275 39.6V52.2H28.5311C29.2654 51.7385 29.9461 51.1976 30.5613 50.5863C32.7543 48.4053 33.9834 45.4376 33.975 42.3448V39.6H40.275ZM32.175 42.3448C32.1755 47.7879 27.763 52.2004 22.3199 52.2H9.67505V39.6H15.975C16.472 39.6 16.875 39.197 16.875 38.7V30.6H32.175V42.3448Z" fill="#E4772F" stroke="white" stroke-width="0.5"/>
<path d="M7.87466 27.0001V25.2001H9.67466V23.4001H7.87466V21.6001H6.07466V23.4001H4.27466V25.2001H6.07466V27.0001H7.87466Z" fill="#E4772F" stroke="white" stroke-width="0.5"/>
<path d="M11.475 6.30002V4.50002H13.275V2.70002H11.475V0.900024H9.675V2.70002H7.875V4.50002H9.675V6.30002H11.475Z" fill="#E4772F" stroke="white" stroke-width="0.5"/>
<path d="M34.8747 5.4V3.6H36.6747V1.8H34.8747V0H33.0747V1.8H31.2747V3.6H33.0747V5.4H34.8747Z" fill="#E4772F" stroke="white" stroke-width="0.5"/>
<path d="M42.975 31.5V29.7H44.775V27.9H42.975V26.1H41.175V27.9H39.375V29.7H41.175V31.5H42.975Z" fill="#E4772F" stroke="white" stroke-width="0.5"/>
<path d="M26.7747 11.7002H43.8747V13.5002H26.7747V11.7002Z" fill="#E4772F" stroke="white" stroke-width="0.5"/>
<path d="M45.675 11.7H47.475V13.5H45.675V11.7Z" fill="#E4772F" stroke="white" stroke-width="0.5"/>
</g>
<defs>
<clipPath id="clip0_482_6814">
<rect width="54" height="54" fill="white"/>
</clipPath>
</defs>
</svg>
