<svg width="54" height="54" viewBox="0 0 54 54" fill="none" xmlns="http://www.w3.org/2000/svg">
<g clip-path="url(#clip0_482_6806)">
<path d="M42.7354 52.4593C41.7294 53.4598 40.3933 54.0076 38.9732 53.9998L14.7567 53.869C14.2961 53.8664 13.8552 53.6816 13.5305 53.355C9.10349 48.9002 12.3795 43.6599 13.1875 41.9277C14.326 39.4871 13.4608 37.9165 11.5534 27.9716C8.76726 13.4459 7.79506 8.16594 11.0327 1.02321C11.4299 0.147027 12.4621 -0.241421 13.3384 0.155845C14.2146 0.553002 14.603 1.58531 14.2058 2.4616C11.5892 8.23388 11.7744 12.2395 16.1133 32.938C17.4279 39.2083 17.696 40.7208 16.0124 44.0776C14.9381 46.2193 14.0295 48.3771 15.5565 50.3894L39.002 50.5161C40.0009 50.5161 40.8124 49.7081 40.8124 48.7056C40.8124 47.8086 40.1692 47.0564 39.2832 46.917L33.2041 45.9608C27.1015 45.0006 22.7961 39.3868 23.509 33.2065L26.9806 3.99623C27.094 3.04089 27.9601 2.35861 28.9158 2.47205C29.8712 2.5856 30.5536 3.45199 30.44 4.40732L26.969 33.6116C26.4732 37.91 29.4679 41.8462 33.7454 42.5191L39.8244 43.4754C44.1733 44.1595 45.7596 49.4514 42.7354 52.4593Z" fill="#E4772F" stroke="white" stroke-width="2"/>
<path d="M21.3371 17.7189L19.5813 19.3096V16.4277L22.3004 13.9642C22.4283 13.8486 22.5 13.6915 22.5 13.5279V9.56141C22.5 9.22067 22.195 8.94421 21.8187 8.94421C21.4426 8.94421 21.1375 9.22067 21.1375 9.56141V13.2722L18.9 15.2994L16.6626 13.2722V12.5144L19.3087 10.7164C19.4804 10.5996 19.5813 10.4168 19.5813 10.2226V6.91716C19.5813 6.57643 19.2763 6.29999 18.9 6.29999C18.5238 6.29999 18.2187 6.57643 18.2187 6.91716V9.91403L16.6626 10.9714V9.56141C16.6626 9.22067 16.3574 8.94421 15.9813 8.94421C15.6051 8.94421 15.3 9.22067 15.3 9.56141V13.5279C15.3 13.6915 15.3717 13.8486 15.4995 13.9642L18.2187 16.4277V22.7828C18.2187 23.1235 18.5238 23.4 18.9 23.4C19.2763 23.4 19.5813 23.1235 19.5813 22.7828V21.0552L22.3006 18.5916C22.5666 18.3507 22.5666 17.96 22.3006 17.7189C22.0345 17.4778 21.603 17.4778 21.3371 17.7189Z" fill="#E4772F"/>
</g>
<defs>
<clipPath id="clip0_482_6806">
<rect width="54" height="54" fill="white"/>
</clipPath>
</defs>
</svg>
