<svg width="54" height="54" viewBox="0 0 54 54" fill="none" xmlns="http://www.w3.org/2000/svg">
<g clip-path="url(#clip0_482_6801)">
<path d="M47.1487 10.7108C43.0529 6.78337 38.958 5.05482 34.9893 5.57457C30.1477 6.2078 27.0254 9.98793 26.0024 11.4209C21.4554 10.3494 20.5312 6.47592 20.491 6.29565C20.383 5.80334 19.899 5.48489 19.4048 5.59653C18.9107 5.70176 18.5959 6.18858 18.7021 6.68364C18.7505 6.91057 19.9676 12.2583 26.265 13.3408L26.8772 13.4441L27.2012 12.9162C27.2314 12.8668 30.2465 8.03245 35.24 7.38732C38.6322 6.94717 42.212 8.51194 45.8822 12.0313C53.2468 19.0929 53.1168 28.1722 50.54 34.315C50.3259 34.8257 50.0916 35.3216 49.8445 35.8057C49.7146 35.7343 49.5719 35.683 49.4126 35.683C48.9075 35.683 48.4976 36.093 48.4976 36.5981C48.4976 36.9312 48.6851 37.2103 48.9514 37.3704C48.5268 38.0522 48.0693 38.7037 47.5779 39.3214C47.5651 38.8273 47.1652 38.4283 46.6674 38.4283C46.1623 38.4283 45.7524 38.8382 45.7524 39.3433C45.7524 39.8485 46.1623 40.2584 46.6674 40.2584C46.7159 40.2584 46.7571 40.2383 46.8029 40.231C46.1834 40.9218 45.5227 41.5624 44.8245 42.1517C44.8272 42.1297 44.8382 42.1115 44.8382 42.0885C44.8382 41.5834 44.4282 41.1735 43.9231 41.1735C43.418 41.1735 43.0081 41.5834 43.0081 42.0885C43.0081 42.5434 43.3457 42.9039 43.7813 42.9753C43.1609 43.4309 42.5213 43.8565 41.8551 44.2316C41.6876 44.0431 41.4497 43.9187 41.1779 43.9187C40.6728 43.9187 40.2628 44.3286 40.2628 44.8338C40.2628 44.8951 40.2858 44.9482 40.2977 45.0058C37.794 46.1231 35.0506 46.6969 32.2076 46.6007L32.1288 46.5989L32.0528 46.6099C31.9861 46.6209 25.307 47.481 17.5518 42.8416L16.859 42.44L16.3604 43.0658C16.3347 43.0979 15.718 43.8565 14.6126 43.9187C13.4953 43.9955 12.1657 43.2891 10.7903 41.9147C9.87801 41.0024 8.60333 40.7315 7.46041 41.2018C6.59201 41.5606 4.5752 42.9029 4.5752 47.6C4.5752 48.106 4.98515 48.515 5.49027 48.515C5.99539 48.515 6.40534 48.106 6.40534 47.6C6.40534 44.6645 7.31125 43.2434 8.15952 42.8919C8.61706 42.6998 9.10482 42.8179 9.49461 43.2077C10.7546 44.4677 11.9973 45.251 13.2171 45.574C13.3644 45.6756 13.5328 45.7488 13.7259 45.7488C13.7945 45.7488 13.8549 45.7241 13.9189 45.7104C14.2017 45.7433 14.4836 45.7607 14.7636 45.7433C15.8818 45.6674 16.709 45.1787 17.2169 44.7669C22.9397 48.0218 27.9836 48.5205 30.5412 48.5205C31.4224 48.5205 32.0089 48.461 32.2249 48.4345C40.8512 48.6285 48.7108 43.4062 52.2273 35.0242C55.8163 26.4711 53.8699 17.1547 47.1487 10.7108Z" fill="#E4772F" stroke="white" stroke-width="0.4"/>
<path d="M5.86101 36.683C9.44712 34.5482 14.5395 36.6711 15.999 37.3629C16.0613 37.4013 16.1244 37.4343 16.1958 37.4571C16.3229 37.5203 16.409 37.5642 16.4154 37.5678L17.067 37.9211L17.5474 37.3583C20.2239 34.227 24.3234 35.5191 24.4927 35.573L25.5551 35.928L25.6905 34.8163C25.9989 32.2889 29.564 30.9254 29.6006 30.9117L30.1973 30.6884V24.4531L29.6876 24.2015C27.1473 22.9451 26.9954 19.6097 26.9936 19.5795L26.9708 18.8419L26.246 18.7074C15.5388 16.7217 13.9996 9.23458 13.9392 8.91618C13.8468 8.42204 13.3737 8.08713 12.8759 8.18321C12.3791 8.2738 12.0487 8.74963 12.1393 9.24655C12.2052 9.60799 13.8505 17.9561 25.2403 20.3719C25.4298 21.6219 26.0886 24.1447 28.3671 25.5576V29.4522C27.2489 29.9801 24.8972 31.3271 24.1056 33.6011C22.4997 33.3064 19.2201 33.1143 16.6487 35.6408C14.7692 34.7623 9.20007 32.5698 4.93039 35.1054C1.65902 37.05 0 41.2538 0 47.5998C0 48.1058 0.409951 48.5148 0.915066 48.5148C1.42018 48.5148 1.83013 48.1058 1.83013 47.5998C1.83013 41.9483 3.18627 38.2752 5.86101 36.683Z" fill="#E4772F" stroke="white" stroke-width="0.4"/>
<path d="M41.1778 34.768C41.6832 34.768 42.0928 34.3584 42.0928 33.853C42.0928 33.3477 41.6832 32.938 41.1778 32.938C40.6724 32.938 40.2627 33.3477 40.2627 33.853C40.2627 34.3584 40.6724 34.768 41.1778 34.768Z" fill="#E4772F" stroke="white" stroke-width="0.4"/>
<path d="M46.6692 34.768C47.1746 34.768 47.5843 34.3584 47.5843 33.853C47.5843 33.3477 47.1746 32.938 46.6692 32.938C46.1638 32.938 45.7542 33.3477 45.7542 33.853C45.7542 34.3584 46.1638 34.768 46.6692 34.768Z" fill="#E4772F" stroke="white" stroke-width="0.4"/>
<path d="M49.4132 32.0224C49.9185 32.0224 50.3282 31.6127 50.3282 31.1073C50.3282 30.6019 49.9185 30.1923 49.4132 30.1923C48.9077 30.1923 48.498 30.6019 48.498 31.1073C48.498 31.6127 48.9077 32.0224 49.4132 32.0224Z" fill="#E4772F" stroke="white" stroke-width="0.4"/>
<path d="M21.9609 37.5137C22.4663 37.5137 22.876 37.1041 22.876 36.5987C22.876 36.0933 22.4663 35.6836 21.9609 35.6836C21.4556 35.6836 21.0459 36.0933 21.0459 36.5987C21.0459 37.1041 21.4556 37.5137 21.9609 37.5137Z" fill="#E4772F" stroke="white" stroke-width="0.4"/>
<path d="M27.4532 37.5137C27.9586 37.5137 28.3682 37.1041 28.3682 36.5987C28.3682 36.0933 27.9586 35.6836 27.4532 35.6836C26.9478 35.6836 26.5381 36.0933 26.5381 36.5987C26.5381 37.1041 26.9478 37.5137 27.4532 37.5137Z" fill="#E4772F" stroke="white" stroke-width="0.4"/>
<path d="M32.9425 37.5137C33.4478 37.5137 33.8575 37.1041 33.8575 36.5987C33.8575 36.0933 33.4478 35.6836 32.9425 35.6836C32.437 35.6836 32.0273 36.0933 32.0273 36.5987C32.0273 37.1041 32.437 37.5137 32.9425 37.5137Z" fill="#E4772F" stroke="white" stroke-width="0.4"/>
<path d="M38.4317 37.5137C38.9371 37.5137 39.3468 37.1041 39.3468 36.5987C39.3468 36.0933 38.9371 35.6836 38.4317 35.6836C37.9264 35.6836 37.5166 36.0933 37.5166 36.5987C37.5166 37.1041 37.9264 37.5137 38.4317 37.5137Z" fill="#E4772F" stroke="white" stroke-width="0.4"/>
<path d="M43.9239 37.5137C44.4293 37.5137 44.8389 37.1041 44.8389 36.5987C44.8389 36.0933 44.4293 35.6836 43.9239 35.6836C43.4185 35.6836 43.0088 36.0933 43.0088 36.5987C43.0088 37.1041 43.4185 37.5137 43.9239 37.5137Z" fill="#E4772F" stroke="white" stroke-width="0.4"/>
<path d="M13.7256 40.2593C14.2309 40.2593 14.6407 39.8497 14.6407 39.3443C14.6407 38.8389 14.2309 38.4292 13.7256 38.4292C13.2202 38.4292 12.8105 38.8389 12.8105 39.3443C12.8105 39.8497 13.2202 40.2593 13.7256 40.2593Z" fill="#E4772F" stroke="white" stroke-width="0.4"/>
<path d="M19.2157 40.2595C19.7211 40.2595 20.1308 39.8498 20.1308 39.3444C20.1308 38.839 19.7211 38.4293 19.2157 38.4293C18.7103 38.4293 18.3007 38.839 18.3007 39.3444C18.3007 39.8498 18.7103 40.2595 19.2157 40.2595Z" fill="#E4772F" stroke="white" stroke-width="0.4"/>
<path d="M21.9609 43.005C22.4663 43.005 22.876 42.5953 22.876 42.0898C22.876 41.5845 22.4663 41.1748 21.9609 41.1748C21.4556 41.1748 21.0459 41.5845 21.0459 42.0898C21.0459 42.5953 21.4556 43.005 21.9609 43.005Z" fill="#E4772F" stroke="white" stroke-width="0.4"/>
<path d="M24.7071 40.2595C25.2125 40.2595 25.6221 39.8498 25.6221 39.3444C25.6221 38.839 25.2125 38.4293 24.7071 38.4293C24.2018 38.4293 23.792 38.839 23.792 39.3444C23.792 39.8498 24.2018 40.2595 24.7071 40.2595Z" fill="#E4772F" stroke="white" stroke-width="0.4"/>
<path d="M30.1963 40.2593C30.7016 40.2593 31.1113 39.8497 31.1113 39.3443C31.1113 38.8389 30.7016 38.4292 30.1963 38.4292C29.6909 38.4292 29.2812 38.8389 29.2812 39.3443C29.2812 39.8497 29.6909 40.2593 30.1963 40.2593Z" fill="#E4772F" stroke="white" stroke-width="0.4"/>
<path d="M24.7071 45.7474C25.2125 45.7474 25.6221 45.3376 25.6221 44.8323C25.6221 44.3269 25.2125 43.9172 24.7071 43.9172C24.2018 43.9172 23.792 44.3269 23.792 44.8323C23.792 45.3376 24.2018 45.7474 24.7071 45.7474Z" fill="#E4772F" stroke="white" stroke-width="0.4"/>
<path d="M30.1963 45.7471C30.7016 45.7471 31.1113 45.3374 31.1113 44.832C31.1113 44.3267 30.7016 43.917 30.1963 43.917C29.6909 43.917 29.2812 44.3267 29.2812 44.832C29.2812 45.3374 29.6909 45.7471 30.1963 45.7471Z" fill="#E4772F" stroke="white" stroke-width="0.4"/>
<path d="M27.4532 43.005C27.9586 43.005 28.3682 42.5953 28.3682 42.0898C28.3682 41.5845 27.9586 41.1748 27.4532 41.1748C26.9478 41.1748 26.5381 41.5845 26.5381 42.0898C26.5381 42.5953 26.9478 43.005 27.4532 43.005Z" fill="#E4772F" stroke="white" stroke-width="0.4"/>
<path d="M32.9425 43.0052C33.4478 43.0052 33.8575 42.5955 33.8575 42.0901C33.8575 41.5847 33.4478 41.175 32.9425 41.175C32.437 41.175 32.0273 41.5847 32.0273 42.0901C32.0273 42.5955 32.437 43.0052 32.9425 43.0052Z" fill="#E4772F" stroke="white" stroke-width="0.4"/>
<path d="M35.6886 40.2593C36.1939 40.2593 36.6036 39.8497 36.6036 39.3443C36.6036 38.8389 36.1939 38.4292 35.6886 38.4292C35.1831 38.4292 34.7734 38.8389 34.7734 39.3443C34.7734 39.8497 35.1831 40.2593 35.6886 40.2593Z" fill="#E4772F" stroke="white" stroke-width="0.4"/>
<path d="M41.1778 40.2595C41.6832 40.2595 42.0928 39.8498 42.0928 39.3444C42.0928 38.839 41.6832 38.4293 41.1778 38.4293C40.6724 38.4293 40.2627 38.839 40.2627 39.3444C40.2627 39.8498 40.6724 40.2595 41.1778 40.2595Z" fill="#E4772F" stroke="white" stroke-width="0.4"/>
<path d="M35.6886 45.7471C36.1939 45.7471 36.6036 45.3374 36.6036 44.832C36.6036 44.3267 36.1939 43.917 35.6886 43.917C35.1831 43.917 34.7734 44.3267 34.7734 44.832C34.7734 45.3374 35.1831 45.7471 35.6886 45.7471Z" fill="#E4772F" stroke="white" stroke-width="0.4"/>
<path d="M38.4317 43.005C38.9371 43.005 39.3468 42.5953 39.3468 42.0898C39.3468 41.5845 38.9371 41.1748 38.4317 41.1748C37.9264 41.1748 37.5166 41.5845 37.5166 42.0898C37.5166 42.5953 37.9264 43.005 38.4317 43.005Z" fill="#E4772F" stroke="white" stroke-width="0.4"/>
</g>
<defs>
<clipPath id="clip0_482_6801">
<rect width="54" height="54" fill="white"/>
</clipPath>
</defs>
</svg>
