<svg width="54" height="54" viewBox="0 0 54 54" fill="none" xmlns="http://www.w3.org/2000/svg">
<g clip-path="url(#clip0_482_6953)">
<mask id="path-1-inside-1_482_6953" fill="white">
<path fill-rule="evenodd" clip-rule="evenodd" d="M15.637 12.6763V11.9945C15.637 10.1945 17.3606 8.4701 19.1614 8.4701C20.6662 8.4701 21.4373 8.73146 22.428 9.86402C22.901 10.404 22.8046 10.6128 22.7995 11.5395V22.1134C21.0823 22.2559 18.9338 24.385 18.9338 26.7747C18.9338 28.4803 20.592 28.3702 21.0226 27.499C21.2429 27.0533 21.204 24.8724 22.7995 24.5009V34.7335C22.2034 34.8725 21.8721 35.2116 20.8937 34.9366C20.304 34.771 19.6265 34.051 19.2751 34.051C17.7566 34.051 17.2325 35.8495 19.7914 36.9454C20.7943 37.3752 21.7267 37.3709 22.7995 37.1211V47.695C22.8024 48.6727 22.8967 48.9327 22.4633 49.5187C20.9081 51.6211 17.5493 51.4879 16.1352 49.1292C15.8674 48.6821 15.84 48.3451 15.637 47.9218C16.6198 47.4019 17.501 47.0427 18.2534 45.9915C19.0555 44.8704 20.6662 41.2143 18.2513 41.2143C17.0525 41.2143 17.3736 42.6147 17.0489 43.5355C16.7342 44.4291 16.2288 45.036 15.4778 45.4896C13.243 46.8389 10.5977 45.5674 9.93815 43.3743C9.49535 41.8997 10.5451 43.3066 13.0896 41.3957C14.441 40.3812 15.5232 38.6561 15.5232 36.4385C15.5232 35.5623 14.5426 35.095 13.8168 35.5234C13.0759 35.9611 13.3308 36.9526 13.0385 37.8202C12.1673 40.41 8.61767 41.3871 6.50879 39.2004C5.79455 38.4603 5.40431 37.5149 5.40431 36.0979C5.89823 36.1087 9.33551 36.9857 9.33623 35.0741C9.33623 33.5614 7.41815 34.051 7.22303 34.051C2.77127 34.051 1.64015 28.3824 4.38119 26.5471C5.46983 28.6049 10.2931 30.4071 10.2931 27.9115C10.2931 27.3917 9.81143 26.9885 9.36935 26.9021C8.64431 26.7603 8.32391 26.7862 7.68959 26.5356C6.80039 26.1821 6.12143 25.3959 5.74415 24.5016C4.69655 22.0147 6.58799 19.4163 8.01935 19.3846C8.63711 22.0363 13.4762 24.3771 13.4762 21.8859C13.4762 21.294 13.1033 20.9211 12.6706 20.7591C10.9037 20.0974 9.83807 19.4688 9.83807 16.8833C9.83807 15.8998 10.3774 14.9256 10.9123 14.4331C11.795 13.6203 12.2069 13.6541 13.4762 13.3589C13.4914 14.0415 13.9089 14.8198 14.1559 15.2943C14.4626 15.8854 14.9025 16.339 15.3785 16.8005C16.4405 17.8308 20.5257 19.6207 20.5257 17.1108C20.5257 15.7068 18.8323 16.4283 17.4298 15.5455C16.65 15.0545 15.637 13.8787 15.637 12.6763ZM13.4762 11.0844C10.1808 11.3595 7.56431 13.7225 7.56431 16.9971C6.34607 17.5817 5.58359 17.7588 4.54103 19.0894C3.51719 20.3955 2.66327 22.9392 3.35735 24.3871C0.170631 26.5212 -0.527049 31.3999 2.82095 34.5874C3.59135 35.3203 3.12983 35.3283 3.12983 36.4385C3.12983 38.9455 4.58207 40.9601 6.61679 42.048C6.95951 42.2309 7.24103 42.2935 7.56431 42.4649C7.56431 45.6293 10.1981 48.2631 13.3625 48.2631C14.0954 49.7909 13.5835 49.8852 15.323 51.6463C17.3765 53.7257 20.6071 53.7703 23.0753 52.0632C23.477 51.7853 23.5807 51.5707 23.9364 51.3331C25.2648 52.2223 25.7148 53.2656 28.7114 53.2656C30.7526 53.2656 32.8694 51.7954 33.6773 50.2726C33.9509 49.7578 34.3807 48.9528 34.3965 48.2631C37.3593 48.2631 39.5993 46.3147 40.2235 43.6306C40.3056 43.2756 40.3293 42.7507 40.4222 42.3511C41.58 42.0811 42.8097 41.107 43.4469 40.2588C44.1489 39.3235 44.743 38.0254 44.743 36.4385C44.743 35.3801 44.339 35.2714 44.9928 34.6428C47.3897 32.3352 47.9563 29.3782 46.4112 26.4701C45.9554 25.6126 45.3902 25.0107 44.6292 24.5009C44.6292 23.3921 45.2347 21.8859 43.4916 21.8859C42.3691 21.8859 42.5657 22.945 42.3835 23.7334C42.1884 24.5787 41.8867 25.1496 41.364 25.6695C39.6698 27.3543 37.5797 26.4427 37.5797 27.9115C37.5797 30.649 43.0769 28.1031 43.4916 26.5471C45.5054 27.6127 45.707 32.2575 42.5052 33.6334C40.6325 34.4383 40.1335 33.7716 39.3509 33.9955C38.3789 34.2727 37.9058 36.3247 40.536 36.3247C41.3647 36.3247 41.7845 36.1131 42.4685 36.0979C42.4685 41.2085 36.3204 41.7435 34.879 37.8893C34.5557 37.0239 34.7962 36.0029 34.128 35.5673C33.3814 35.0806 32.3496 35.5608 32.3496 36.4385C32.3496 38.9563 33.8565 41.0386 35.7574 42.0135C36.8265 42.5628 38.0347 42.5139 38.0347 42.8055C38.0347 44.55 35.8747 46.6121 33.2532 45.882C32.2164 45.5926 31.5295 44.8855 31.0298 44.0122C30.2969 42.7327 31.1594 41.2143 29.394 41.2143C27.5508 41.2143 28.5235 44.4881 29.587 45.9094C30.4531 47.0664 30.9744 47.2543 32.2358 47.9218C31.9125 48.5971 32.1221 48.9096 31.073 49.9428C29.3724 51.6183 26.5277 51.2158 25.3152 49.3863C24.8882 48.7426 25.0733 45.918 25.0733 44.9655C25.0733 41.8587 25.0733 38.7504 25.0733 35.6429C25.4534 35.5543 25.8581 35.3016 26.3239 35.3016C27.7085 35.3016 28.0404 36.3247 28.7114 36.3247C30.4042 36.3247 30.3566 33.8998 27.6034 33.2266C26.473 32.9501 26.1835 32.9969 25.0733 33.2554V20.8627C27.6466 22.2243 25.9445 24.3281 27.7351 24.5455C29.5279 24.7623 28.8922 22.1494 28.5206 21.2811C28.0346 20.1442 26.4226 18.6185 25.0733 18.589V10.7439C25.0733 9.7553 26.7343 8.4701 28.1426 8.4701C32.6614 8.4701 32.0076 12.3739 32.5512 13.0435C33.2582 13.9162 34.5103 13.1904 34.5103 12.5626C34.5103 10.7079 34.0711 9.24482 32.7658 7.94018C32.5728 7.7465 32.6081 7.82354 32.3863 7.63778C31.8276 7.16978 32.009 7.25114 31.1774 6.80042C29.2593 5.76218 26.4269 6.04874 24.7126 7.42682C24.4015 7.67738 24.269 7.90634 23.9364 8.12882C23.3359 7.72706 23.6844 7.68674 22.2552 6.8537C21.1838 6.22946 20.2709 6.19634 19.0476 6.19634C16.362 6.19634 13.667 8.79338 13.4762 11.0844Z"/>
</mask>
<path fill-rule="evenodd" clip-rule="evenodd" d="M15.637 12.6763V11.9945C15.637 10.1945 17.3606 8.4701 19.1614 8.4701C20.6662 8.4701 21.4373 8.73146 22.428 9.86402C22.901 10.404 22.8046 10.6128 22.7995 11.5395V22.1134C21.0823 22.2559 18.9338 24.385 18.9338 26.7747C18.9338 28.4803 20.592 28.3702 21.0226 27.499C21.2429 27.0533 21.204 24.8724 22.7995 24.5009V34.7335C22.2034 34.8725 21.8721 35.2116 20.8937 34.9366C20.304 34.771 19.6265 34.051 19.2751 34.051C17.7566 34.051 17.2325 35.8495 19.7914 36.9454C20.7943 37.3752 21.7267 37.3709 22.7995 37.1211V47.695C22.8024 48.6727 22.8967 48.9327 22.4633 49.5187C20.9081 51.6211 17.5493 51.4879 16.1352 49.1292C15.8674 48.6821 15.84 48.3451 15.637 47.9218C16.6198 47.4019 17.501 47.0427 18.2534 45.9915C19.0555 44.8704 20.6662 41.2143 18.2513 41.2143C17.0525 41.2143 17.3736 42.6147 17.0489 43.5355C16.7342 44.4291 16.2288 45.036 15.4778 45.4896C13.243 46.8389 10.5977 45.5674 9.93815 43.3743C9.49535 41.8997 10.5451 43.3066 13.0896 41.3957C14.441 40.3812 15.5232 38.6561 15.5232 36.4385C15.5232 35.5623 14.5426 35.095 13.8168 35.5234C13.0759 35.9611 13.3308 36.9526 13.0385 37.8202C12.1673 40.41 8.61767 41.3871 6.50879 39.2004C5.79455 38.4603 5.40431 37.5149 5.40431 36.0979C5.89823 36.1087 9.33551 36.9857 9.33623 35.0741C9.33623 33.5614 7.41815 34.051 7.22303 34.051C2.77127 34.051 1.64015 28.3824 4.38119 26.5471C5.46983 28.6049 10.2931 30.4071 10.2931 27.9115C10.2931 27.3917 9.81143 26.9885 9.36935 26.9021C8.64431 26.7603 8.32391 26.7862 7.68959 26.5356C6.80039 26.1821 6.12143 25.3959 5.74415 24.5016C4.69655 22.0147 6.58799 19.4163 8.01935 19.3846C8.63711 22.0363 13.4762 24.3771 13.4762 21.8859C13.4762 21.294 13.1033 20.9211 12.6706 20.7591C10.9037 20.0974 9.83807 19.4688 9.83807 16.8833C9.83807 15.8998 10.3774 14.9256 10.9123 14.4331C11.795 13.6203 12.2069 13.6541 13.4762 13.3589C13.4914 14.0415 13.9089 14.8198 14.1559 15.2943C14.4626 15.8854 14.9025 16.339 15.3785 16.8005C16.4405 17.8308 20.5257 19.6207 20.5257 17.1108C20.5257 15.7068 18.8323 16.4283 17.4298 15.5455C16.65 15.0545 15.637 13.8787 15.637 12.6763ZM13.4762 11.0844C10.1808 11.3595 7.56431 13.7225 7.56431 16.9971C6.34607 17.5817 5.58359 17.7588 4.54103 19.0894C3.51719 20.3955 2.66327 22.9392 3.35735 24.3871C0.170631 26.5212 -0.527049 31.3999 2.82095 34.5874C3.59135 35.3203 3.12983 35.3283 3.12983 36.4385C3.12983 38.9455 4.58207 40.9601 6.61679 42.048C6.95951 42.2309 7.24103 42.2935 7.56431 42.4649C7.56431 45.6293 10.1981 48.2631 13.3625 48.2631C14.0954 49.7909 13.5835 49.8852 15.323 51.6463C17.3765 53.7257 20.6071 53.7703 23.0753 52.0632C23.477 51.7853 23.5807 51.5707 23.9364 51.3331C25.2648 52.2223 25.7148 53.2656 28.7114 53.2656C30.7526 53.2656 32.8694 51.7954 33.6773 50.2726C33.9509 49.7578 34.3807 48.9528 34.3965 48.2631C37.3593 48.2631 39.5993 46.3147 40.2235 43.6306C40.3056 43.2756 40.3293 42.7507 40.4222 42.3511C41.58 42.0811 42.8097 41.107 43.4469 40.2588C44.1489 39.3235 44.743 38.0254 44.743 36.4385C44.743 35.3801 44.339 35.2714 44.9928 34.6428C47.3897 32.3352 47.9563 29.3782 46.4112 26.4701C45.9554 25.6126 45.3902 25.0107 44.6292 24.5009C44.6292 23.3921 45.2347 21.8859 43.4916 21.8859C42.3691 21.8859 42.5657 22.945 42.3835 23.7334C42.1884 24.5787 41.8867 25.1496 41.364 25.6695C39.6698 27.3543 37.5797 26.4427 37.5797 27.9115C37.5797 30.649 43.0769 28.1031 43.4916 26.5471C45.5054 27.6127 45.707 32.2575 42.5052 33.6334C40.6325 34.4383 40.1335 33.7716 39.3509 33.9955C38.3789 34.2727 37.9058 36.3247 40.536 36.3247C41.3647 36.3247 41.7845 36.1131 42.4685 36.0979C42.4685 41.2085 36.3204 41.7435 34.879 37.8893C34.5557 37.0239 34.7962 36.0029 34.128 35.5673C33.3814 35.0806 32.3496 35.5608 32.3496 36.4385C32.3496 38.9563 33.8565 41.0386 35.7574 42.0135C36.8265 42.5628 38.0347 42.5139 38.0347 42.8055C38.0347 44.55 35.8747 46.6121 33.2532 45.882C32.2164 45.5926 31.5295 44.8855 31.0298 44.0122C30.2969 42.7327 31.1594 41.2143 29.394 41.2143C27.5508 41.2143 28.5235 44.4881 29.587 45.9094C30.4531 47.0664 30.9744 47.2543 32.2358 47.9218C31.9125 48.5971 32.1221 48.9096 31.073 49.9428C29.3724 51.6183 26.5277 51.2158 25.3152 49.3863C24.8882 48.7426 25.0733 45.918 25.0733 44.9655C25.0733 41.8587 25.0733 38.7504 25.0733 35.6429C25.4534 35.5543 25.8581 35.3016 26.3239 35.3016C27.7085 35.3016 28.0404 36.3247 28.7114 36.3247C30.4042 36.3247 30.3566 33.8998 27.6034 33.2266C26.473 32.9501 26.1835 32.9969 25.0733 33.2554V20.8627C27.6466 22.2243 25.9445 24.3281 27.7351 24.5455C29.5279 24.7623 28.8922 22.1494 28.5206 21.2811C28.0346 20.1442 26.4226 18.6185 25.0733 18.589V10.7439C25.0733 9.7553 26.7343 8.4701 28.1426 8.4701C32.6614 8.4701 32.0076 12.3739 32.5512 13.0435C33.2582 13.9162 34.5103 13.1904 34.5103 12.5626C34.5103 10.7079 34.0711 9.24482 32.7658 7.94018C32.5728 7.7465 32.6081 7.82354 32.3863 7.63778C31.8276 7.16978 32.009 7.25114 31.1774 6.80042C29.2593 5.76218 26.4269 6.04874 24.7126 7.42682C24.4015 7.67738 24.269 7.90634 23.9364 8.12882C23.3359 7.72706 23.6844 7.68674 22.2552 6.8537C21.1838 6.22946 20.2709 6.19634 19.0476 6.19634C16.362 6.19634 13.667 8.79338 13.4762 11.0844Z" fill="#E4772F" stroke="white" mask="url(#path-1-inside-1_482_6953)"/>
<path d="M45.9451 6.03975L45.7092 5.98474C45.4715 5.9293 45.2178 5.8284 44.9742 5.73147C44.8913 5.69847 44.8095 5.66593 44.7298 5.6358C44.4008 5.5113 44.0756 5.41232 43.7355 5.40614C43.0867 5.39437 42.2816 5.72187 41.2902 7.22056C41.1264 7.46851 40.98 7.67065 40.833 7.87359C40.765 7.96745 40.6969 8.06148 40.6269 8.16029L40.6267 8.16056C40.1052 8.89453 38.6361 11.0161 37.2705 13.0491C36.5877 14.0656 35.9318 15.0583 35.4337 15.8436C35.1845 16.2364 34.976 16.5754 34.8237 16.8386C34.7475 16.9704 34.6865 17.0811 34.6419 17.1689C34.595 17.2612 34.5735 17.3144 34.5672 17.3365L34.5672 17.3366C34.21 18.5979 34.0306 19.3406 34.0576 19.9629C34.0837 20.5645 34.3052 21.0749 34.8311 21.8605L34.9247 22.0005L34.8303 22.1398L30.1459 29.0518L30.1458 29.052C29.6786 29.7401 29.6566 30.1868 29.7704 30.4341C29.8817 30.6759 30.18 30.8454 30.6446 30.8454C30.9159 30.8454 31.1867 30.642 31.4628 30.2908C31.6437 30.0608 31.7917 29.817 31.9289 29.591C32.0017 29.4711 32.0715 29.3562 32.1414 29.2511L32.1416 29.251C32.2697 29.0589 32.5684 28.625 32.9488 28.0725C33.3577 27.4787 33.8609 26.7478 34.348 26.0328C34.8196 25.3408 35.2769 24.6623 35.6229 24.1321C35.796 23.8667 35.94 23.6403 36.0436 23.4686C36.0955 23.3826 36.1359 23.3125 36.1644 23.2593C36.1867 23.2176 36.1965 23.1955 36.1999 23.1879C36.2015 23.1843 36.2017 23.1838 36.2012 23.1859L36.2635 22.9518L36.4994 23.0067C37.3965 23.2156 37.7756 23.2926 38.148 23.2152C38.3327 23.1768 38.5266 23.0972 38.7894 22.9535C39.0395 22.8168 39.3382 22.6299 39.7406 22.3782L39.8123 22.3334L39.8123 22.3334C40.6718 21.7961 41.1031 21.4276 41.4561 20.9991C41.6973 20.7063 41.9006 20.3892 42.1738 19.963C42.3155 19.7421 42.4759 19.4918 42.6701 19.2005M45.9451 6.03975L42.8781 19.3392M45.9451 6.03975L46.0076 5.80571C46.0343 5.70544 46.1442 5.49264 46.3315 5.19353C46.5117 4.90566 46.7456 4.56567 46.9938 4.22354C47.4935 3.53493 48.0356 2.8593 48.3021 2.59109L48.3021 2.59106C49.1154 1.77231 50.3797 1.18183 51.4333 1.01638C51.9621 0.933335 52.4043 0.962784 52.7013 1.09284C52.8461 1.15623 52.9506 1.2408 53.0199 1.34329C53.0886 1.44502 53.1329 1.57982 53.1329 1.76183C53.1329 2.02117 53.0811 2.19694 53.0101 2.31899C52.94 2.4396 52.8415 2.52439 52.7192 2.58698C52.4725 2.71327 52.1577 2.73922 51.8356 2.76578C51.8164 2.76736 51.7973 2.76894 51.7781 2.77054L51.778 2.77055C50.6158 2.86828 49.7747 3.5146 49.1003 4.3116C48.639 4.85673 48.2363 5.49882 47.8596 6.09933C47.6947 6.36234 47.5347 6.61737 47.377 6.85279L47.2838 6.9919L47.377 7.13102C47.5598 7.404 47.7686 7.64651 47.9582 7.86681C48.0155 7.93335 48.071 7.99787 48.1235 8.06058C48.3573 8.3396 48.5415 8.59262 48.6425 8.88327C48.8361 9.44024 48.7552 10.2393 47.7409 11.7643L47.7416 11.7631L47.9483 11.9038M45.9451 6.03975L47.5847 6.99192C47.7583 7.25107 47.9533 7.47768 48.1411 7.696C48.9408 8.62526 49.6111 9.40433 47.9483 11.9038M42.6701 19.2005L42.8781 19.3392M42.6701 19.2005C42.6701 19.2006 42.67 19.2006 42.67 19.2007L42.8781 19.3392M42.6701 19.2005C42.8989 18.8567 43.116 18.5453 43.3289 18.2402L43.3454 18.2165C43.553 17.9191 43.7567 17.6272 43.9662 17.3133L43.9674 17.3115L47.7402 11.7653L47.9483 11.9038M42.8781 19.3392C43.1113 18.9888 43.3324 18.672 43.551 18.3587C43.7582 18.0618 43.9632 17.7681 44.1741 17.4521L47.9483 11.9038M36.5074 17.3537L36.5071 17.3535L36.5001 17.365C36.321 17.6584 36.161 18.1672 36.0463 18.6795C35.9301 19.1984 35.8515 19.7614 35.8515 20.1809C35.8515 20.2495 35.8768 20.3041 35.8891 20.3286C35.9046 20.3595 35.9237 20.3885 35.942 20.4136C35.9789 20.4644 36.0275 20.5198 36.0813 20.5756C36.1898 20.6882 36.3363 20.8194 36.4975 20.9445C36.6585 21.0694 36.8402 21.1928 37.0196 21.2863C37.1921 21.3762 37.3916 21.454 37.5796 21.454C37.7783 21.454 38.0129 21.3661 38.2297 21.2614C38.4565 21.1518 38.7023 21.0043 38.9354 20.8483C39.3938 20.5417 39.842 20.1765 40.0152 19.9686L40.023 19.9593L40.0298 19.9494L42.8824 15.7603C43.037 15.5524 43.3537 15.1254 43.6474 14.6942C43.7951 14.4773 43.9389 14.2567 44.054 14.0607C44.1647 13.8721 44.263 13.6829 44.3019 13.537L44.3662 13.2958L44.1251 13.2312C44.1045 13.2256 44.0473 13.2008 43.9441 13.1407C43.8476 13.0846 43.729 13.0085 43.5926 12.9172C43.3896 12.7811 43.1557 12.6169 42.9079 12.443C42.8223 12.3829 42.7351 12.3216 42.6468 12.2599C42.306 12.0216 41.9525 11.7786 41.6395 11.5845C41.337 11.397 41.039 11.2334 40.8196 11.1822L40.5835 11.1271L40.5211 11.3614C40.5131 11.3915 40.4793 11.4693 40.4054 11.6029C40.3357 11.729 40.2412 11.8857 40.1284 12.0648C39.9029 12.4225 39.61 12.8596 39.3086 13.2997C38.977 13.7839 38.632 14.2764 38.3604 14.664C38.1441 14.9727 37.9744 15.2149 37.8954 15.3333C37.895 15.3338 37.8947 15.3343 37.8944 15.3348L36.5074 17.3537ZM41.9994 9.42872L41.9685 9.54427L42.0391 9.6408C42.0655 9.67686 42.1022 9.71156 42.1302 9.73689C42.1627 9.76636 42.2029 9.80027 42.2483 9.83719C42.3395 9.91125 42.4593 10.0033 42.5975 10.1063C42.8743 10.3126 43.2315 10.5674 43.596 10.8185C43.9602 11.0695 44.334 11.3182 44.6437 11.5117C44.7984 11.6083 44.9392 11.6926 45.0561 11.7568C45.1648 11.8166 45.2756 11.8722 45.3603 11.8948L45.5527 11.946L45.6457 11.7701C45.869 11.3479 46.097 11.0152 46.2974 10.7374C46.3374 10.6819 46.3772 10.6275 46.4162 10.5742C46.5658 10.3698 46.7032 10.1821 46.7935 10.0146C46.913 9.7928 46.9849 9.54524 46.8742 9.27824C46.7743 9.03701 46.5436 8.83197 46.2234 8.62235L46.2233 8.62229C45.8241 8.36127 45.4959 8.11441 45.213 7.90102L45.1901 7.88375C44.9217 7.68127 44.6819 7.50046 44.4675 7.37937C44.2467 7.25471 44.0091 7.16731 43.7566 7.21443C43.503 7.26175 43.2965 7.43275 43.1081 7.67628L43.1081 7.67628C42.9595 7.86834 42.7146 8.19587 42.4934 8.52391C42.3829 8.68781 42.2765 8.85452 42.1905 9.00608C42.1075 9.15252 42.033 9.3028 41.9994 9.42872Z" fill="#E4772F" stroke="white" stroke-width="0.5"/>
<path fill-rule="evenodd" clip-rule="evenodd" d="M15.5229 29.2761C15.5229 29.7945 15.1709 30.3986 14.8728 30.6729C14.2867 31.2136 14.178 31.0632 13.2924 31.2525C11.9265 31.5441 12.2585 33.4831 13.476 33.4831C15.8743 33.4831 17.7967 31.5355 17.7967 29.1624C17.7967 27.0038 15.9391 24.9561 13.476 24.9561C12.2441 24.9561 11.9121 26.8288 13.2989 27.1795C13.7006 27.2817 15.5229 27.2889 15.5229 29.2761Z" fill="#E4772F"/>
</g>
<defs>
<clipPath id="clip0_482_6953">
<rect width="54" height="54" fill="white"/>
</clipPath>
</defs>
</svg>
