<svg width="54" height="54" viewBox="0 0 54 54" fill="none" xmlns="http://www.w3.org/2000/svg">
<g clip-path="url(#clip0_482_6797)">
<path d="M53.7476 20.2858C53.6508 20.018 53.5203 19.7551 53.3488 19.4826C53.3449 19.4766 53.3412 19.4706 53.3372 19.4647L53.2103 19.2737C53.207 19.269 53.2035 19.2638 53.2002 19.259C53.1569 19.1969 53.1125 19.1367 53.0664 19.0778C52.9706 18.9555 52.8689 18.8407 52.7644 18.737L52.4883 18.4627L52.7418 18.1673C52.9117 17.9691 53.0536 17.7322 53.2013 17.3988C53.2037 17.3934 53.2059 17.388 53.2084 17.3824C53.2726 17.2289 53.3333 17.0791 53.3683 16.9373C53.4105 16.7712 53.4438 16.6024 53.4691 16.4268C53.5728 15.7433 53.4825 14.9921 53.2053 14.2466C53.1372 14.0687 53.0492 13.8975 52.9647 13.7374C52.9618 13.7318 52.9589 13.7263 52.9558 13.7208L52.9309 13.676C52.8476 13.526 52.769 13.3842 52.6833 13.2732L52.6748 13.2621C52.5645 13.1143 52.446 12.9702 52.3256 12.8371C52.1929 12.6891 52.0808 12.5816 51.9674 12.4927C51.6335 12.2265 51.395 12.0724 51.152 11.9642C50.8646 11.8328 50.5738 11.7378 50.2881 11.6816L49.9106 11.6073L49.9531 11.2248C49.9853 10.9349 49.982 10.6266 49.9442 10.3159C49.9143 10.0508 49.8431 9.77863 49.7057 9.40612C49.7036 9.40018 49.7014 9.39442 49.6992 9.38866C49.4555 8.76962 49.046 8.19039 48.5217 7.71958C48.2396 7.46087 47.9199 7.26427 47.6727 7.12189C47.667 7.11862 47.661 7.11514 47.6552 7.11198C47.3991 6.97234 47.111 6.85833 46.7489 6.75297C46.4955 6.67913 46.2074 6.63726 45.8423 6.62102C45.8376 6.62081 45.8328 6.6207 45.828 6.6206C45.7817 6.61933 45.7358 6.6186 45.6901 6.6186C45.617 6.6186 45.509 6.62049 45.3992 6.63062C45.2506 6.64613 45.1031 6.66954 44.9609 6.70033L44.5561 6.78808L44.4643 6.38414C44.1986 5.2146 43.2898 4.1499 42.0935 3.60567C41.5074 3.33884 40.8929 3.20342 40.267 3.20342C39.6279 3.20342 39.0062 3.34928 38.4688 3.62519L38.0981 3.81546L37.9063 3.44537C37.3435 2.3602 36.2583 1.56106 35.0061 1.30794C34.7031 1.24571 34.3949 1.21418 34.0901 1.21418C33.124 1.21418 32.2052 1.52837 31.5029 2.09885L31.173 2.36673L30.9102 2.03283C30.7332 1.80796 30.525 1.60156 30.2954 1.42247C30.0671 1.24234 29.8151 1.0815 29.5465 0.944915C29.5368 0.940064 29.5271 0.935213 29.5171 0.930677C28.9115 0.651291 28.296 0.507853 27.6877 0.504584C27.6634 0.504162 27.5829 0.502686 27.5541 0.502686C26.983 0.502686 26.4001 0.6264 25.8216 0.870349C25.8116 0.874567 25.8017 0.878997 25.7919 0.883532C25.5194 1.01105 25.2607 1.1646 25.0266 1.33715C24.7904 1.50939 24.5775 1.70724 24.3936 1.92535L24.1198 2.2503L23.799 1.97144C23.0747 1.34158 22.1113 0.994802 21.0861 0.994802C20.8346 0.994802 20.5797 1.01621 20.3288 1.0584C19.0697 1.26965 17.9588 2.02734 17.3569 3.08508L17.1512 3.4462L16.7887 3.24318C16.2075 2.9176 15.5287 2.74547 14.8255 2.74547C14.2667 2.74547 13.7153 2.85316 13.1864 3.06525C13.1814 3.06726 13.1761 3.06947 13.171 3.07158C12.8472 3.2089 12.5551 3.36552 12.3028 3.53733C12.2965 3.54166 12.2902 3.54598 12.284 3.55051C12.0266 3.73603 11.7893 3.94297 11.5789 4.1655C11.5721 4.17257 11.5657 4.17963 11.5593 4.18691C11.1326 4.67017 10.8398 5.18886 10.6894 5.72855L10.5786 6.12595L10.1798 6.02091C9.87336 5.94022 9.58239 5.89603 9.31464 5.89002C9.31068 5.88991 9.3069 5.88991 9.30294 5.88991L9.23958 5.88939C8.96241 5.88939 8.67723 5.9167 8.39193 5.9706C8.38528 5.97186 8.37885 5.97312 8.37231 5.9746C8.08491 6.03588 7.78707 6.13566 7.45484 6.28268C7.19086 6.40217 6.90472 6.57799 6.57967 6.82014C6.57386 6.82447 6.56806 6.8289 6.56237 6.83344C6.32327 7.02138 6.08659 7.25552 5.83864 7.54967C5.83241 7.55705 5.8263 7.56465 5.82018 7.57225C5.63403 7.80891 5.4618 8.08418 5.30814 8.39068C5.30349 8.39986 5.29907 8.40924 5.29474 8.41852C5.02611 9.00616 4.90018 9.61879 4.93045 10.1901L4.95186 10.5919L4.55129 10.6289C4.41155 10.6417 4.26811 10.663 4.12499 10.6924C4.11496 10.6945 4.10495 10.6967 4.09504 10.6992C3.96994 10.7295 3.83315 10.772 3.68307 10.8273C3.34103 10.956 3.06513 11.0988 2.84459 11.2601L2.8331 11.269C2.50773 11.4978 2.26431 11.7151 2.07341 11.9452L2.06128 11.9595C1.9478 12.0904 1.83779 12.2294 1.73423 12.3723C1.72484 12.3854 1.71566 12.3987 1.7069 12.4123C1.61747 12.552 1.52803 12.7082 1.43554 12.8868C1.10458 13.5189 0.930339 14.2684 0.945 15.0012C0.952488 15.2971 1.00438 15.6243 1.0992 15.9741C1.1012 15.9817 1.10342 15.9892 1.10552 15.9966C1.18568 16.263 1.3133 16.5391 1.48522 16.8171L1.6837 17.1381L1.3846 17.3685C0.596112 17.9757 -0.22475 19.3266 0.0564291 21.1354C0.058855 21.1502 0.0613862 21.1652 0.0646558 21.18C0.107054 21.3813 0.158944 21.5833 0.221487 21.7889L0.240682 21.8497C0.2738 21.9557 0.289199 22.0036 0.314511 22.0634C0.358175 22.1639 0.403843 22.2625 0.448772 22.3537C0.535257 22.5259 0.628702 22.7077 0.735753 22.8693C0.742081 22.8789 0.74862 22.8883 0.755264 22.8976C0.869276 23.0557 0.992565 23.2104 1.11734 23.3513L1.15024 23.3878C1.20487 23.4486 1.24685 23.4946 1.28904 23.535C1.29716 23.5427 1.30528 23.5502 1.31372 23.5575C1.3827 23.6187 1.45241 23.677 1.52202 23.7322C1.65607 23.8388 1.79392 23.9365 1.93177 24.0229C1.94811 24.0331 1.96488 24.0429 1.98176 24.052C2.26673 24.2049 2.56142 24.3153 2.85736 24.3803L3.18916 24.4533L3.18589 24.7931C3.18283 25.1104 3.22386 25.4342 3.30455 25.7295C3.3075 25.7406 3.31077 25.7515 3.31425 25.7624C3.36382 25.9186 3.42457 26.0779 3.49439 26.2348C3.52751 26.3093 3.56273 26.3839 3.60049 26.4585C3.60777 26.4728 3.61536 26.4869 3.62348 26.5008C3.66304 26.5692 3.70511 26.636 3.74909 26.7039C3.84813 26.8557 3.95782 27.0072 4.07542 27.154C4.0827 27.1632 4.09028 27.1722 4.09788 27.1809C4.1986 27.2967 4.31694 27.4167 4.48558 27.5735C4.5592 27.6411 4.63493 27.7079 4.70949 27.7704C4.77193 27.8214 4.82815 27.86 4.87339 27.891L4.93573 27.9341C5.09277 28.0412 5.25793 28.1435 5.42668 28.2381C5.43923 28.2451 5.45189 28.2518 5.46476 28.2582C6.10759 28.577 6.77489 28.7457 7.3943 28.7457C7.43027 28.7457 7.46581 28.7452 7.51064 28.7437C7.672 28.7399 7.83231 28.7285 7.98735 28.7092C7.99347 28.7086 7.99959 28.7076 8.00581 28.7068C8.16548 28.6835 8.32612 28.6425 8.4414 28.6112C8.76307 28.5209 9.02925 28.4122 9.25488 28.2788L9.61443 28.0665L9.82746 28.4256C10.4356 29.4512 11.6064 30.1977 12.8813 30.3741C13.0884 30.4031 13.2982 30.4178 13.5045 30.4178C14.5402 30.4178 15.5264 30.0507 16.2818 29.384L16.6025 29.1011L16.8783 29.4276C17.6466 30.3366 18.7956 30.8813 20.0311 30.9224C20.0893 30.9242 20.147 30.9229 20.2048 30.9225C19.8876 31.5335 19.7139 32.2197 19.7139 32.934C19.7139 35.0538 21.2337 36.8245 23.2409 37.2158C23.447 41.1008 25.7754 44.6501 29.293 46.3652L32.4109 47.8854L32.4356 47.8974C33.5075 48.414 34.1735 49.4521 34.1735 50.6067C34.1735 52.2008 35.4704 53.4977 37.0645 53.4977H38.1037C39.6977 53.4977 40.9947 52.2008 40.9947 50.6067C40.9947 48.307 40.163 46.1083 38.7326 44.3742C38.9925 44.3924 39.2533 44.4026 39.5144 44.4026C39.6682 44.4026 39.8223 44.3995 39.9762 44.393C45.9312 44.146 50.5932 39.2784 50.5894 33.3114C50.5892 32.8406 50.2074 32.4594 49.7368 32.4594C49.7367 32.4594 49.7364 32.4594 49.7363 32.4594C49.2654 32.4595 48.8839 32.8417 48.8841 33.3125C48.8874 38.3615 44.9435 42.4803 39.9056 42.6893C38.3464 42.754 36.7879 42.4307 35.4007 41.7543L32.2828 40.2339C31.2033 39.7076 30.4292 38.7123 30.1555 37.5677C30.1628 37.5672 30.1701 37.5674 30.1772 37.5668C30.846 37.5133 31.4446 37.3443 31.9533 37.0662C32.4904 36.7757 32.9403 36.4004 33.2911 35.9509L33.551 35.6175L33.8817 35.8811C34.3235 36.2333 34.858 36.5026 35.4275 36.6599C35.4373 36.6627 35.4471 36.6652 35.457 36.6676C35.8138 36.7524 36.1758 36.7955 36.533 36.7955C36.7925 36.7955 37.0579 36.7722 37.3008 36.7284C37.3046 36.7278 37.3082 36.7271 37.312 36.7262C37.9895 36.5943 38.5831 36.3473 39.0683 35.997C39.3203 35.8191 39.5467 35.6236 39.741 35.4159C39.7459 35.4105 39.7507 35.4054 39.7553 35.4C39.9519 35.1791 40.1232 34.9416 40.2646 34.694L40.4696 34.3345L40.8312 34.5357C41.1131 34.6925 41.3822 34.8074 41.6351 34.8785C41.925 34.9584 42.2312 35.0089 42.5389 35.0284L42.5532 35.0295C42.827 35.052 43.1357 35.032 43.5056 34.9668C43.8798 34.9015 44.1881 34.8102 44.4751 34.6791L44.4977 34.6692C45.7601 34.1305 46.7252 33.0156 46.9571 31.8273L47.0332 31.4375L47.4265 31.4931C47.5623 31.5124 47.7071 31.5311 47.8638 31.5311C47.8639 31.5311 47.8641 31.5311 47.8643 31.5311C48.0156 31.5296 48.1719 31.5188 48.3289 31.4986C48.487 31.4784 48.6485 31.4488 48.8107 31.41C48.9605 31.374 49.12 31.3097 49.2607 31.2532C49.2638 31.2519 49.2684 31.25 49.2715 31.2488C49.4296 31.183 49.5894 31.1071 49.7461 31.0234C49.7518 31.0203 49.7577 31.0172 49.7633 31.014C49.9026 30.9353 50.0396 30.8357 50.1917 30.7231C50.1967 30.7193 50.2017 30.7157 50.2065 30.7118C50.3399 30.6085 50.491 30.4913 50.6201 30.3636C50.6247 30.3589 50.6293 30.3543 50.634 30.3496C50.7704 30.2082 50.902 30.0593 51.0251 29.9061C51.0802 29.8376 51.1341 29.7688 51.1855 29.6989C51.1969 29.6833 51.2078 29.6674 51.2181 29.6512C51.2652 29.5771 51.3104 29.5025 51.3546 29.4268C51.4481 29.2665 51.5346 29.1015 51.6123 28.9366C51.6193 28.9218 51.6257 28.907 51.6318 28.8918C51.7705 28.547 51.8667 28.2134 51.9177 27.9006C51.9198 27.8872 51.9218 27.8738 51.9233 27.8602C51.9548 27.5832 51.985 27.2231 51.938 26.8907C51.8879 26.5394 51.8125 26.2497 51.7077 26.005L51.5561 25.6507L51.8965 25.4704C52.1566 25.3327 52.4042 25.1608 52.6324 24.9595C52.641 24.9519 52.6496 24.944 52.6577 24.9361C52.8979 24.706 53.1028 24.4643 53.2713 24.2098C53.6508 23.6236 53.8979 22.9326 53.9668 22.2699L53.9683 22.2569C54.0488 21.589 53.9752 20.9272 53.7476 20.2858ZM31.5349 41.7673L34.6529 43.2877C34.6541 43.2882 34.6553 43.2889 34.6565 43.2894C37.4706 44.6456 39.2891 47.5179 39.2891 50.6071C39.2891 51.2609 38.7572 51.7928 38.1034 51.7928H37.0642C36.4104 51.7928 35.8785 51.2609 35.8785 50.6071C35.8785 48.7917 34.8428 47.165 33.1721 46.3599L30.0402 44.8329C27.1021 43.4006 25.1491 40.4488 24.9477 37.2088C25.0147 37.1953 25.0817 37.1815 25.148 37.1649C25.6046 37.0496 25.881 36.586 25.7659 36.1296C25.6504 35.673 25.187 35.3965 24.7305 35.5116C24.5184 35.5653 24.2984 35.5923 24.0768 35.5923C22.6113 35.5923 21.4191 34.4 21.4191 32.9346C21.4191 32.4326 21.5591 31.9532 21.813 31.541C22.4667 33.0356 23.8649 34.1193 25.4943 34.3508L25.7587 34.3885L25.836 34.644C26.0474 35.3435 26.4479 35.9761 26.9939 36.4732C27.4035 36.8463 27.8818 37.1346 28.3792 37.3108C28.6039 39.213 29.7923 40.9177 31.5349 41.7673ZM52.2743 22.0615L52.2713 22.0887C52.2291 22.4949 52.076 22.9194 51.8449 23.2763C51.755 23.412 51.6329 23.5559 51.4913 23.6931C51.3674 23.8007 51.2355 23.8919 51.0988 23.9643L50.2426 24.4176C50.2181 24.4153 50.1935 24.4138 50.1684 24.4138H48.6884C47.7007 24.4138 46.8974 23.6105 46.8974 22.6227C46.8974 20.6948 45.3289 19.1263 43.401 19.1263H43.2767C41.3489 19.1263 39.7804 20.6947 39.7804 22.6227C39.7804 23.4982 39.0681 24.2104 38.1926 24.2104C37.2049 24.2104 36.4016 23.4071 36.4016 22.4194V21.6736C36.4016 21.2027 36.0197 20.821 35.5489 20.821C35.078 20.821 34.6964 21.2028 34.6964 21.6736V22.4194C34.6964 24.3472 36.2648 25.9157 38.1928 25.9157C40.0084 25.9157 41.4857 24.4385 41.4857 22.6228C41.4857 21.6351 42.289 20.8317 43.2767 20.8317H43.401C44.3887 20.8317 45.1921 21.6351 45.1921 22.6228C45.1921 24.5507 46.7605 26.1192 48.6884 26.1192H49.901L50.1401 26.6776C50.1845 26.7814 50.2215 26.9346 50.2496 27.1315C50.2639 27.2335 50.2578 27.4068 50.2311 27.6468C50.2006 27.8245 50.1425 28.0217 50.0586 28.2338C50.0048 28.3466 49.945 28.4596 49.8811 28.5695C49.8531 28.6173 49.8244 28.6649 49.7947 28.7123C49.7626 28.7549 49.7294 28.7971 49.6959 28.8386C49.6078 28.9483 49.5133 29.0556 49.4153 29.1574C49.359 29.2115 49.2552 29.2923 49.169 29.3591C49.0988 29.4112 48.9895 29.4918 48.9307 29.5263C48.8261 29.582 48.7207 29.6318 48.6239 29.6721C48.5623 29.6969 48.4474 29.7432 48.4124 29.7528C48.3113 29.777 48.2102 29.7955 48.1127 29.8079C48.0212 29.8196 47.9316 29.8259 47.8536 29.8268C47.8144 29.8268 47.7021 29.8108 47.6653 29.8055L46.4705 29.6361C46.0211 29.5722 45.6009 29.8718 45.514 30.3171L45.283 31.5013C45.1579 32.1416 44.5718 32.7853 43.8241 33.1029C43.8206 33.1045 43.8167 33.1061 43.8132 33.1076L43.7808 33.122C43.7773 33.1236 43.7736 33.1252 43.7702 33.1267C43.618 33.1965 43.4405 33.2476 43.2104 33.2878C43.0351 33.3186 42.8933 33.3337 42.7769 33.3337C42.7488 33.3337 42.7209 33.3328 42.6834 33.3297L42.6528 33.3276C42.455 33.315 42.2649 33.2838 42.0914 33.236C42.0084 33.2127 41.8661 33.1608 41.6599 33.0462L40.5609 32.4347C40.1523 32.2073 39.6372 32.3513 39.4056 32.7572L38.7826 33.8494C38.7018 33.9911 38.6027 34.1288 38.4877 34.259C38.3739 34.3795 38.2379 34.4957 38.0768 34.6095C37.7873 34.8183 37.4219 34.967 36.9911 35.0516C36.6484 35.1127 36.248 35.1014 35.8656 35.0126C35.5218 34.9156 35.2033 34.7553 34.9437 34.5483L34.3714 34.0919C34.3743 34.0639 34.3758 34.0353 34.3758 34.0064V33.8821C34.3758 31.9543 32.8073 30.3858 30.8795 30.3858C30.0039 30.3858 29.2917 29.6735 29.2917 28.798C29.2917 27.8103 30.095 27.007 31.0828 27.007H31.8284C32.2994 27.007 32.6811 26.6251 32.6811 26.1543C32.6811 25.6835 32.2992 25.3017 31.8284 25.3017H31.0828C29.1549 25.3017 27.5864 26.8702 27.5864 28.7981C27.5864 30.6138 29.0635 32.0911 30.8793 32.0911C31.867 32.0911 32.6704 32.8944 32.6704 33.8821V33.9728L31.9451 34.9025C31.74 35.1655 31.4693 35.3889 31.1373 35.5687C30.8374 35.7326 30.4683 35.8331 30.0414 35.8672C29.8283 35.8839 29.6038 35.8682 29.3703 35.8209C29.3669 35.8201 29.3633 35.8193 29.3597 35.8185C29.2332 35.7923 29.1042 35.7576 28.9726 35.7126C28.6788 35.6129 28.3913 35.4397 28.1412 35.212C27.8229 34.9219 27.5898 34.5548 27.4674 34.15L27.2327 33.3736C27.1365 33.0559 26.865 32.8229 26.5364 32.7761L25.7334 32.662C24.5885 32.4992 23.6196 31.6802 23.2649 30.5755L22.909 29.4667C22.7937 29.1076 22.4607 28.8746 22.0976 28.8746C22.0351 28.8746 21.9716 28.8815 21.9083 28.8959L20.7723 29.1538C20.5498 29.2045 20.3154 29.2256 20.0863 29.2182C19.3322 29.1931 18.6373 28.8682 18.1797 28.3267L17.3417 27.3349C17.1937 27.1598 16.9814 27.0516 16.7526 27.0349C16.5237 27.0185 16.2982 27.0943 16.1263 27.2459L15.1526 28.1052C14.6179 28.5773 13.8816 28.7923 13.1154 28.6849C12.3527 28.5795 11.6375 28.1363 11.293 27.5557L10.646 26.4644C10.4062 26.0598 9.88398 25.9261 9.47898 26.1652L8.38666 26.8103C8.29131 26.8667 8.15421 26.9201 7.98725 26.9671C7.89211 26.9928 7.81797 27.0098 7.76682 27.0179C7.67126 27.0294 7.57128 27.0363 7.46254 27.0387C7.43312 27.0397 7.41328 27.0402 7.39336 27.0402C7.04098 27.0402 6.64284 26.9362 6.24058 26.7397C6.12183 26.6723 6.00612 26.6005 5.90213 26.5296L5.83601 26.4839C5.81998 26.4728 5.80362 26.4625 5.79687 26.4575C5.74836 26.4168 5.69246 26.3676 5.64205 26.3213C5.52993 26.217 5.45262 26.14 5.39409 26.074C5.3153 25.9747 5.24221 25.8734 5.17777 25.7745C5.15468 25.739 5.1319 25.7033 5.11006 25.6668C5.0896 25.6255 5.0702 25.584 5.05142 25.5419C5.00945 25.4475 4.97337 25.3541 4.94384 25.2635C4.90693 25.1221 4.88816 24.9656 4.88964 24.8096L4.89965 23.7774C4.90366 23.3739 4.62417 23.0229 4.23013 22.9364L3.22176 22.7147C3.0875 22.6853 2.94953 22.6341 2.81158 22.5626C2.73512 22.5134 2.65771 22.4576 2.58082 22.3965C2.54158 22.3655 2.50256 22.333 2.46386 22.2993C2.44983 22.2844 2.43317 22.2655 2.41587 22.2463L2.38749 22.215C2.30903 22.1263 2.22665 22.023 2.1484 21.9157C2.09482 21.8321 2.03197 21.7086 1.97438 21.5941C1.94621 21.537 1.91584 21.4714 1.88947 21.4116C1.88314 21.3921 1.87513 21.3661 1.86669 21.3389L1.84929 21.284C1.80605 21.1419 1.7685 20.9966 1.73718 20.8516C1.56885 19.7165 2.08839 18.9781 2.4241 18.7195L3.33281 18.0198C3.67907 17.7531 3.76776 17.2677 3.53795 16.896L2.93498 15.9206C2.84533 15.7755 2.77836 15.6357 2.74092 15.5155C2.6846 15.305 2.65296 15.1126 2.64906 14.9625C2.6403 14.5227 2.74841 14.0544 2.94722 13.6745C3.0124 13.5488 3.0721 13.4432 3.12926 13.3523C3.19961 13.2562 3.27386 13.1629 3.35486 13.0695L3.37869 13.0413C3.47677 12.9231 3.61494 12.8031 3.82113 12.6579L3.84581 12.6401C3.94337 12.5687 4.0905 12.4957 4.27812 12.4252C4.35523 12.3968 4.42357 12.3749 4.48158 12.36C4.55846 12.3449 4.6343 12.3337 4.70728 12.327L5.9247 12.2147C6.38086 12.1725 6.72215 11.7777 6.69779 11.3202L6.63271 10.0997C6.61711 9.80626 6.6883 9.47533 6.8387 9.1417C6.93667 8.9484 7.04183 8.77891 7.15141 8.63757C7.31647 8.44299 7.4656 8.29343 7.60703 8.18111C7.82535 8.01901 8.01034 7.9032 8.15062 7.83961C8.3604 7.74679 8.55097 7.6813 8.7174 7.64491C8.89522 7.6119 9.07029 7.59523 9.23094 7.59513L9.27999 7.59555C9.37278 7.59808 9.52722 7.61327 9.74439 7.67044L10.9325 7.98336C11.6203 8.68251 11.6174 9.81058 10.9226 10.5055C10.2622 11.1659 9.89847 12.0438 9.89847 12.9777C9.89847 13.9116 10.2621 14.7897 10.9226 15.45L11.0104 15.5378C11.6708 16.1982 12.5488 16.5619 13.4827 16.5619C14.4167 16.5619 15.2946 16.1983 15.955 15.5378C16.574 14.9189 17.5813 14.9189 18.2003 15.5378C18.8987 16.2361 18.8987 17.3725 18.2003 18.0709L17.673 18.5981C17.3401 18.9311 17.3402 19.471 17.673 19.804C17.8396 19.9704 18.0578 20.0536 18.2759 20.0536C18.494 20.0536 18.7124 19.9704 18.8789 19.8038L19.406 19.2766C20.7692 17.9135 20.7692 15.6953 19.406 14.332C18.122 13.0481 16.0331 13.0481 14.749 14.332C14.4107 14.6704 13.961 14.8566 13.4825 14.8566C13.0041 14.8566 12.5544 14.6703 12.216 14.332L12.1281 14.2442C11.7898 13.9059 11.6035 13.4561 11.6035 12.9776C11.6035 12.4992 11.7899 12.0495 12.1281 11.7111C13.4805 10.3587 13.4905 8.16582 12.16 6.8L12.3309 6.1868C12.4105 5.9012 12.5772 5.61211 12.8267 5.32724C12.9585 5.18907 13.1078 5.05935 13.2704 4.94133C13.4268 4.83597 13.6143 4.73641 13.8278 4.64528C14.1516 4.5165 14.4868 4.45111 14.8244 4.45111C15.2363 4.45111 15.6271 4.54804 15.9542 4.73134L17.0555 5.34812C17.4643 5.5773 17.9814 5.43323 18.2131 5.02602L18.8377 3.92904C19.189 3.31205 19.8515 2.86782 20.6102 2.74051C20.768 2.71394 20.9278 2.70054 21.0849 2.70054C21.6989 2.70054 22.2649 2.89882 22.6789 3.25868L23.3519 3.84382C23.3517 3.84941 23.351 3.85489 23.351 3.86038V6.5011C23.351 8.42896 24.9194 9.99751 26.8474 9.99751C27.835 9.99751 28.6385 10.8009 28.6385 11.7886V11.9128C28.6385 12.9006 27.8348 13.7039 26.8474 13.7039C25.0316 13.7039 23.5544 15.1811 23.5544 16.9968C23.5544 18.9247 25.1229 20.4932 27.0508 20.4932H27.7965C28.2674 20.4932 28.6491 20.1114 28.6491 19.6406C28.6491 19.1697 28.2673 18.788 27.7965 18.788H27.0508C26.0631 18.788 25.2598 17.9844 25.2598 16.9969C25.2598 16.1214 25.9719 15.4092 26.8475 15.4092C28.7753 15.4092 30.3439 13.8407 30.3439 11.9128V11.7886C30.3439 9.86071 28.7753 8.29217 26.8475 8.29217C25.8597 8.29217 25.0564 7.48881 25.0564 6.5011V3.86081C25.0564 3.83665 25.0548 3.81292 25.0528 3.78929L25.6966 3.02497C25.7921 2.91148 25.9043 2.80749 26.0338 2.71309C26.1769 2.60752 26.3333 2.51429 26.4988 2.43582C26.861 2.2851 27.2156 2.20853 27.553 2.20853C27.5799 2.20853 27.6585 2.21022 27.6593 2.21022C27.6641 2.21032 27.6687 2.21032 27.6735 2.21032C28.033 2.2117 28.4074 2.29986 28.7867 2.47273C28.9499 2.5569 29.1018 2.65403 29.2417 2.76456C29.3688 2.86371 29.476 2.96949 29.5693 3.08825L30.3677 4.10243C30.509 4.28194 30.7163 4.39722 30.9433 4.42242C31.1701 4.44763 31.3978 4.38076 31.5752 4.2368L32.577 3.42289C33.108 2.99143 33.8863 2.81961 34.6646 2.9793C35.4185 3.13159 36.0639 3.59946 36.3912 4.23058L36.9738 5.35445C37.1899 5.77136 37.7022 5.93506 38.1202 5.72053L39.2466 5.14235C39.5441 4.98952 39.8964 4.90885 40.2657 4.90885C40.6463 4.90885 41.0231 4.99248 41.386 5.15786C42.0971 5.48144 42.6524 6.11108 42.8004 6.76214L42.9028 7.2127C42.3055 7.4769 41.7912 7.91206 41.4144 8.48433C40.8979 9.26887 40.7057 10.206 40.8731 11.123C40.9493 11.5402 40.8585 11.962 40.6174 12.311C40.3763 12.6598 40.0136 12.8939 39.5964 12.9701C39.1258 13.0561 38.6497 12.9536 38.2563 12.6815C37.8627 12.4094 37.5986 12.0005 37.5126 11.5299L37.3787 10.7962C37.2941 10.3329 36.8499 10.0265 36.3867 10.1106C35.9236 10.1952 35.6165 10.6391 35.7011 11.1024L35.835 11.8361C36.0028 12.7548 36.5182 13.5532 37.2865 14.0841C37.8775 14.4927 38.5636 14.7054 39.267 14.7054C39.478 14.7054 39.6904 14.6863 39.9024 14.6475C40.7677 14.4895 41.5196 14.004 42.0197 13.2804C42.5199 12.5568 42.7083 11.6819 42.5504 10.8166C42.4633 10.3405 42.5684 9.832 42.8384 9.42187C43.1085 9.01156 43.5097 8.73957 43.9681 8.65572C43.9797 8.65361 43.9908 8.65024 44.0022 8.6476C44.0317 8.64432 44.0614 8.63969 44.0912 8.63326L45.3209 8.36652C45.4022 8.34891 45.4873 8.33552 45.564 8.3274C45.5684 8.32708 45.6093 8.32338 45.6889 8.32338C45.7168 8.32338 45.7446 8.32381 45.7727 8.32465C45.9914 8.33467 46.1544 8.35597 46.271 8.39005C46.5078 8.45892 46.6857 8.52726 46.8296 8.60457C46.9871 8.69548 47.2099 8.83111 47.3744 8.98204C47.7068 9.28048 47.9602 9.63391 48.1077 10.0046C48.1917 10.2333 48.2351 10.3885 48.2493 10.5138C48.2723 10.704 48.2749 10.8749 48.2569 11.0365L48.128 12.1984C48.0792 12.6389 48.376 13.0436 48.811 13.1292L49.9584 13.3548C50.1132 13.3851 50.2758 13.439 50.4492 13.5182C50.5556 13.5657 50.6956 13.6606 50.9084 13.8301C50.9451 13.8591 50.9915 13.9049 51.0573 13.9784C51.146 14.0765 51.2278 14.1758 51.3114 14.2878L51.3226 14.3023C51.3446 14.3338 51.401 14.4355 51.4385 14.5034L51.4589 14.5401C51.5156 14.6477 51.5776 14.768 51.6084 14.8484C51.7796 15.309 51.8411 15.7786 51.7809 16.1766C51.7632 16.2983 51.7415 16.4097 51.7136 16.5195C51.7026 16.559 51.6582 16.666 51.6375 16.7156C51.5636 16.8813 51.5012 16.9929 51.4464 17.0566L50.6765 17.9536C50.3854 18.2927 50.4056 18.7991 50.7227 19.114L51.5618 19.9473C51.6164 20.0014 51.6704 20.0626 51.7217 20.1281C51.7464 20.1597 51.7707 20.1924 51.7944 20.2262L51.9098 20.3996C52.0128 20.5644 52.089 20.7168 52.1411 20.8609C52.2792 21.2471 52.3239 21.6485 52.2743 22.0615Z" fill="#E4772F" stroke="white" stroke-width="0.5"/>
</g>
<defs>
<clipPath id="clip0_482_6797">
<rect width="54" height="54" fill="white"/>
</clipPath>
</defs>
</svg>
