<svg width="54" height="54" viewBox="0 0 54 54" fill="none" xmlns="http://www.w3.org/2000/svg">
<g clip-path="url(#clip0_482_6805)">
<path d="M39.0374 30.376C38.1262 30.376 37.3162 30.691 36.4724 31.0172C36.0674 31.1747 35.6399 31.3434 35.1674 31.4784C34.1437 31.7709 30.6674 32.2322 28.6987 32.4797V4.53475C28.6987 3.97229 28.2937 3.46604 27.7424 3.38725C27.0337 3.286 26.4375 3.826 26.4375 4.501V32.4685C24.4575 32.2209 20.9924 31.7597 19.9688 31.4672C19.5075 31.3322 19.08 31.1635 18.6637 31.0172C17.8087 30.691 16.9987 30.376 16.0875 30.376C12.9037 30.376 10.6875 33.0085 10.6875 36.7772C10.6875 40.8947 13.905 42.0535 17.3812 42.7059C19.0912 43.0322 19.9125 43.7522 20.6326 45.5859C21.5888 48.0272 25.9088 49.5009 27.5513 49.5009C29.1938 49.5009 33.5251 48.0272 34.4701 45.5859C35.1901 43.7522 36.0113 43.0209 37.7213 42.7059C41.1976 42.0534 44.4152 40.8834 44.4152 36.7772C44.4374 33.0085 42.2099 30.376 39.0374 30.376ZM37.3274 40.5122C34.8299 40.9847 33.39 42.2222 32.3887 44.7872C31.9499 45.901 28.8336 47.2734 27.5624 47.2734C26.2912 47.2734 23.1749 45.901 22.7362 44.7759C21.7237 42.2109 20.2948 40.9735 17.7973 40.501C13.6912 39.736 12.9373 38.6447 12.9373 36.7772C12.9373 34.8647 13.7587 32.6259 16.0874 32.6259C16.5823 32.6259 17.1674 32.8509 17.8537 33.1097C18.3149 33.2897 18.81 33.4697 19.3387 33.6272C20.4862 33.9647 23.5799 34.3811 26.7524 34.7747L27.4161 34.8647C27.4498 34.8647 27.4836 34.8647 27.5173 34.8647C27.5511 34.8647 27.5511 34.876 27.5624 34.876C27.5737 34.876 27.5962 34.8647 27.6074 34.8647C27.6187 34.8647 27.6749 34.8647 27.7087 34.8647L28.3837 34.7747C31.5449 34.3811 34.6388 33.9535 35.7749 33.6272C36.3149 33.4698 36.7987 33.2897 37.2712 33.1097C37.9687 32.851 38.5538 32.6259 39.0487 32.6259C41.3774 32.6259 42.1987 34.8647 42.1987 36.7772C42.1874 38.656 41.4337 39.736 37.3274 40.5122Z" fill="#E4772F" stroke="white" stroke-width="0.7"/>
<path d="M35.5619 11.2497C36.8894 11.2497 38.5094 10.9347 40.4219 10.0123C40.9957 9.77608 41.2657 9.11233 41.0181 8.53858C40.7818 7.96483 40.1182 7.69483 39.5444 7.94236C39.5107 7.95364 39.4769 7.97612 39.4432 7.98739C35.0557 10.1023 32.9407 8.27987 32.8282 8.17862C32.3781 7.75114 31.6693 7.76233 31.2306 8.21236C30.8032 8.66239 30.8143 9.37117 31.2643 9.80992C31.3657 9.88849 32.817 11.2497 35.5619 11.2497Z" fill="#E4772F" stroke="white" stroke-width="0.7"/>
<path d="M32.5796 12.4965C32.0171 12.2265 31.3532 12.4515 31.0721 13.0141C30.8021 13.5541 31.0158 14.2177 31.5446 14.4991C31.6908 14.5778 34.0308 15.7478 37.2371 15.7478C39.1271 15.7591 40.9833 15.3315 42.6821 14.5103C43.2446 14.2403 43.4696 13.5653 43.1996 13.0028C42.9296 12.4404 42.2546 12.2153 41.6922 12.4853C37.0683 14.724 32.6245 12.519 32.5796 12.4965Z" fill="#E4772F" stroke="white" stroke-width="0.7"/>
<path d="M41.4787 25.7971C42.0524 25.5609 42.3337 24.9083 42.0974 24.3346C41.8612 23.7608 41.2087 23.4796 40.6349 23.7158C35.2687 25.8983 32.9286 24.0196 32.8049 23.9183C32.3324 23.5133 31.6237 23.5696 31.2187 24.0308C30.8249 24.4809 30.8587 25.1671 31.2974 25.5833C31.3874 25.6621 32.895 27.0008 35.9663 27.0008C37.4399 27.0008 39.2737 26.6971 41.4787 25.7971Z" fill="#E4772F" stroke="white" stroke-width="0.7"/>
<path d="M45.248 16.8765C37.1029 19.2165 32.6593 17.0002 32.5918 16.9664C32.0404 16.674 31.3654 16.8765 31.073 17.4277C30.7805 17.9789 30.983 18.6539 31.5342 18.9464C31.6692 19.0252 33.9529 20.2064 38.1605 20.2064C40.2643 20.2064 42.8404 19.914 45.8779 19.0365C46.4742 18.8678 46.8229 18.2489 46.6542 17.6528C46.4855 17.0565 45.8555 16.7078 45.248 16.8765Z" fill="#E4772F" stroke="white" stroke-width="0.7"/>
<path d="M14.5921 9.96792C14.6258 9.97917 14.6596 10.0017 14.7046 10.0129C16.6283 10.9355 18.2483 11.2504 19.5646 11.2504C22.3096 11.2504 23.7608 9.88909 23.8508 9.81042C24.3008 9.37167 24.3008 8.66293 23.8733 8.2129C23.4346 7.76287 22.7258 7.76287 22.2758 8.19043C22.2533 8.21291 20.1045 10.1142 15.6721 7.98793C15.1208 7.69537 14.4458 7.89787 14.142 8.43787C13.8496 8.98916 14.0521 9.66417 14.5921 9.96792Z" fill="#E4772F" stroke="white" stroke-width="0.7"/>
<path d="M12.4418 14.5127C14.1406 15.334 15.9968 15.7615 17.8868 15.7502C21.0931 15.7502 23.4332 14.569 23.5793 14.4902C24.1193 14.1864 24.3218 13.5001 24.0181 12.9601C23.7256 12.4426 23.0843 12.2289 22.5443 12.4876C22.4993 12.5101 18.0893 14.7376 13.4318 12.4763C12.8694 12.2063 12.1944 12.4426 11.9244 12.9939C11.6544 13.5451 11.8907 14.2427 12.4418 14.5127Z" fill="#E4772F" stroke="white" stroke-width="0.7"/>
<path d="M22.2976 23.9191C22.2752 23.9416 19.9127 25.9104 14.479 23.7054C13.9052 23.4691 13.2415 23.7504 13.0164 24.3241C12.7801 24.8979 13.0615 25.5616 13.6352 25.7867C15.8402 26.6866 17.6739 26.9904 19.1477 26.9904C22.219 26.9904 23.7265 25.6517 23.8166 25.5729C24.2777 25.1566 24.3003 24.4367 23.8841 23.9866C23.4677 23.5366 22.759 23.503 22.2976 23.9191Z" fill="#E4772F" stroke="white" stroke-width="0.7"/>
<path d="M22.3417 19.0473C22.9267 18.8223 23.2079 18.1698 22.983 17.596C22.758 17.011 22.1055 16.7298 21.5317 16.9548C21.4755 16.9773 15.2767 19.2948 8.81923 16.9435C8.23421 16.7297 7.59296 17.0334 7.37927 17.6185C7.16548 18.2035 7.46923 18.8448 8.05427 19.0584C10.293 19.8573 12.6667 20.2623 15.0517 20.251C19.1579 20.251 22.1505 19.126 22.3417 19.0473Z" fill="#E4772F" stroke="white" stroke-width="0.7"/>
<path d="M47.0024 0H7.00868C4.53375 0 2.8125 1.91246 2.8125 4.64621V49.3425C2.8125 52.0425 4.57879 54 7.00879 54H47.0025C49.4662 54 51.1875 52.0875 51.1875 49.3425V4.64621C51.1874 1.91246 49.4662 0 47.0024 0ZM48.9375 49.3425C48.9375 50.5125 48.4312 51.75 47.0024 51.75H7.00868C5.56871 51.75 5.06246 50.4562 5.06246 49.3425V4.64621C5.06246 3.54375 5.56871 2.24996 7.00868 2.24996H47.0024C48.4312 2.24996 48.9375 3.48754 48.9375 4.64621V49.3425Z" fill="#E4772F" stroke="white" stroke-width="0.7"/>
<path d="M16.875 38.25C17.807 38.25 18.5625 37.4945 18.5625 36.5625C18.5625 35.6305 17.807 34.875 16.875 34.875C15.943 34.875 15.1875 35.6305 15.1875 36.5625C15.1875 37.4945 15.943 38.25 16.875 38.25Z" fill="#E4772F" stroke="white" stroke-width="0.7"/>
<path d="M38.25 38.25C39.182 38.25 39.9375 37.4945 39.9375 36.5625C39.9375 35.6305 39.182 34.875 38.25 34.875C37.318 34.875 36.5625 35.6305 36.5625 36.5625C36.5625 37.4945 37.318 38.25 38.25 38.25Z" fill="#E4772F" stroke="white" stroke-width="0.7"/>
</g>
<defs>
<clipPath id="clip0_482_6805">
<rect width="54" height="54" fill="white"/>
</clipPath>
</defs>
</svg>
