<svg width="54" height="54" viewBox="0 0 54 54" fill="none" xmlns="http://www.w3.org/2000/svg">
<g clip-path="url(#clip0_482_6807)">
<path d="M30.1004 21.5393C30.2409 21.9525 30.6895 22.1741 31.104 22.0337C31.5176 21.8928 31.7388 21.4437 31.5983 21.0297C31.5427 20.8661 31.4871 20.7009 31.4315 20.5344C31.2935 20.12 30.8457 19.8959 30.4312 20.0343C30.0168 20.1723 29.7926 20.6202 29.9306 21.0346C29.9871 21.2044 30.0435 21.3724 30.1004 21.5393Z" fill="#E4772F" stroke="white" stroke-width="0.2"/>
<path d="M33.0459 24.9464C32.9816 24.7861 32.9178 24.6242 32.8535 24.461C32.6936 24.0544 32.2347 23.8542 31.8281 24.014C31.4215 24.1739 31.2212 24.6329 31.3811 25.0395C31.4461 25.2063 31.5117 25.3716 31.5772 25.5351C31.7399 25.9406 32.2001 26.1375 32.6059 25.9747C33.0117 25.8124 33.2086 25.3518 33.0459 24.9464Z" fill="#E4772F" stroke="white" stroke-width="0.2"/>
<path d="M31.4735 44.3469C31.6442 44.2615 31.8139 44.1696 31.9782 44.0749C32.3564 43.8562 32.4858 43.3724 32.267 42.9939C32.0487 42.6156 31.5646 42.4863 31.1864 42.7051C31.0488 42.7845 30.9067 42.8612 30.7633 42.9333C30.3732 43.1294 30.2153 43.6048 30.4114 43.9949C30.608 44.3855 31.0834 44.543 31.4735 44.3469Z" fill="#E4772F" stroke="white" stroke-width="0.2"/>
<path d="M28.8305 17.4768C28.95 17.8966 29.3875 18.1405 29.8078 18.0206C30.228 17.9012 30.4719 17.4636 30.352 17.0434C30.3046 16.8765 30.2577 16.7089 30.2102 16.5399C30.0932 16.1193 29.6574 15.8725 29.2363 15.9904C28.8152 16.1074 28.5694 16.5436 28.6864 16.9643C28.7341 17.1361 28.7823 17.3071 28.8305 17.4768Z" fill="#E4772F" stroke="white" stroke-width="0.2"/>
<path d="M35.9852 37.9106C36.3613 37.9106 36.695 37.6412 36.7634 37.258C36.7964 37.0709 36.8248 36.8802 36.8474 36.6907C36.8985 36.2569 36.5887 35.8639 36.1548 35.8124C35.7215 35.7604 35.3277 36.0707 35.2761 36.5045C35.2572 36.6635 35.2337 36.8238 35.2057 36.9808C35.1196 37.464 35.4904 37.9106 35.9852 37.9106Z" fill="#E4772F" stroke="white" stroke-width="0.2"/>
<path d="M28.7139 13.9438C29.1396 13.8445 29.4036 13.4189 29.3043 12.9933C29.2647 12.8244 29.2256 12.6543 29.1865 12.4837C29.0889 12.0577 28.6649 11.7915 28.2389 11.8888C27.8133 11.986 27.5468 12.4104 27.644 12.836C27.6835 13.0094 27.7235 13.182 27.7639 13.3538C27.8632 13.779 28.2888 14.0435 28.7139 13.9438Z" fill="#E4772F" stroke="white" stroke-width="0.2"/>
<path d="M33.8502 41.5869C34.2008 41.8486 34.6964 41.776 34.9576 41.4259C35.0705 41.2743 35.1813 41.1165 35.2863 40.957C35.527 40.5925 35.4265 40.1018 35.0618 39.8611C34.6972 39.6202 34.2065 39.7211 33.9659 40.0857C33.8774 40.2196 33.7842 40.3522 33.6891 40.4799C33.4279 40.8301 33.5 41.3262 33.8502 41.5869Z" fill="#E4772F" stroke="white" stroke-width="0.2"/>
<path d="M33.2756 29.4496C33.4615 29.8447 33.9327 30.0148 34.3283 29.8291C34.7237 29.6432 34.8935 29.1723 34.7077 28.7769C34.6348 28.6211 34.5615 28.4638 34.4877 28.3038C34.3048 27.9071 33.8351 27.7337 33.4384 27.9166C33.0416 28.0995 32.8682 28.5692 33.0511 28.966C33.1261 29.1295 33.201 29.2906 33.2756 29.4496Z" fill="#E4772F" stroke="white" stroke-width="0.2"/>
<path d="M35.9725 33.7004C36.3911 33.5748 36.6283 33.1339 36.5023 32.7154C36.4475 32.5332 36.3869 32.3503 36.3219 32.1715C36.1718 31.7612 35.7179 31.5494 35.3075 31.6994C34.8968 31.8489 34.6854 32.3034 34.8353 32.7137C34.8901 32.8637 34.9413 33.0173 34.987 33.1706C35.1131 33.5887 35.5539 33.8261 35.9725 33.7004Z" fill="#E4772F" stroke="white" stroke-width="0.2"/>
<path d="M18.2471 34.1421C18.6014 34.1421 18.924 33.9019 19.0138 33.5423C19.0525 33.3878 19.0961 33.2321 19.1439 33.0796C19.2746 32.6626 19.0426 32.2189 18.6257 32.0883C18.2087 31.9577 17.765 32.1897 17.6344 32.6066C17.5772 32.7887 17.5248 32.9746 17.4791 33.1592C17.3543 33.6576 17.7316 34.1421 18.2471 34.1421Z" fill="#E4772F" stroke="white" stroke-width="0.2"/>
<path d="M20.4929 28.2982C20.0969 28.1128 19.626 28.2838 19.441 28.6794C19.3664 28.8384 19.2927 28.9954 19.2186 29.1498C19.0299 29.5441 19.1967 30.0162 19.5906 30.205C19.9861 30.3941 20.4574 30.2259 20.6457 29.8329C20.7215 29.6743 20.7977 29.5132 20.8739 29.3496C21.0593 28.9541 20.8888 28.4833 20.4929 28.2982Z" fill="#E4772F" stroke="white" stroke-width="0.2"/>
<path d="M26.9362 45.3947C27.1532 45.3973 27.3872 45.3927 27.6233 45.3787C28.0592 45.3535 28.3925 44.9795 28.3674 44.5436C28.3422 44.1073 27.9694 43.7728 27.5319 43.7991C27.3473 43.8098 27.1549 43.8148 26.9551 43.8127C26.5192 43.8082 26.16 44.1575 26.1546 44.5943C26.1496 45.031 26.4995 45.3894 26.9362 45.3947Z" fill="#E4772F" stroke="white" stroke-width="0.2"/>
<path d="M17.3214 37.1422C17.3522 37.3292 17.3893 37.5188 17.4313 37.7045C17.5274 38.1305 17.9505 38.3983 18.3773 38.302C18.8033 38.2056 19.0711 37.7824 18.9747 37.3561C18.9393 37.1999 18.9083 37.0409 18.8824 36.8839C18.8107 36.4525 18.4033 36.1609 17.9723 36.2325C17.5414 36.3038 17.2497 36.7113 17.3214 37.1422Z" fill="#E4772F" stroke="white" stroke-width="0.2"/>
<path d="M25.9151 10.0189C26.1715 10.3728 26.6658 10.4523 27.0197 10.196C27.0251 10.1928 27.0416 10.1882 27.0609 10.1903C27.4944 10.2435 27.889 9.93449 27.9418 9.5006C27.9945 9.06725 27.6859 8.67253 27.2521 8.61979C26.1966 8.49125 25.4064 9.3161 25.9151 10.0189Z" fill="#E4772F" stroke="white" stroke-width="0.2"/>
<path d="M21.6344 26.4245C21.9463 26.4245 22.2421 26.2383 22.3674 25.9318C22.4337 25.7686 22.5 25.6035 22.5667 25.437C22.7286 25.0316 22.5309 24.5714 22.1251 24.4091C21.7193 24.2472 21.2591 24.4449 21.0972 24.8507C21.0321 25.0134 20.967 25.175 20.9019 25.3344C20.6901 25.8539 21.0733 26.4245 21.6344 26.4245Z" fill="#E4772F" stroke="white" stroke-width="0.2"/>
<path d="M22.8608 22.4323C23.2733 22.5749 23.7244 22.3565 23.8669 21.9428C23.9246 21.7764 23.9823 21.6083 24.0396 21.439C24.1796 21.0253 23.958 20.5763 23.5439 20.4362C23.1307 20.2957 22.6813 20.5177 22.5412 20.9318C22.4847 21.0979 22.4283 21.2627 22.3719 21.4259C22.2289 21.839 22.4481 22.2893 22.8608 22.4323Z" fill="#E4772F" stroke="white" stroke-width="0.2"/>
<path d="M25.1546 17.8841C25.2036 17.7147 25.2527 17.5438 25.3013 17.372C25.4208 16.9518 25.1764 16.5146 24.7562 16.3956C24.336 16.276 23.8985 16.5204 23.7795 16.9406C23.7317 17.1087 23.6834 17.2764 23.6352 17.4424C23.5132 17.8618 23.7542 18.301 24.1741 18.4229C24.5927 18.5449 25.0322 18.3043 25.1546 17.8841Z" fill="#E4772F" stroke="white" stroke-width="0.2"/>
<path d="M26.2427 13.7685C26.2835 13.5967 26.3242 13.4241 26.3647 13.2506C26.4639 12.825 26.1994 12.3999 25.7738 12.301C25.3483 12.2017 24.923 12.4662 24.8238 12.8918C24.7843 13.0624 24.7438 13.2316 24.7035 13.4006C24.5848 13.897 24.9614 14.3757 25.4735 14.3757C25.8315 14.3757 26.1558 14.1315 26.2427 13.7685Z" fill="#E4772F" stroke="white" stroke-width="0.2"/>
<path d="M22.5254 44.2929C22.6944 44.3806 22.8686 44.4642 23.0425 44.5417C23.4421 44.7196 23.9093 44.5392 24.0868 44.1404C24.2644 43.7416 24.0848 43.2741 23.6855 43.096C23.5397 43.0313 23.3938 42.9613 23.2522 42.888C22.8645 42.6869 22.3866 42.839 22.1859 43.2266C21.9852 43.6152 22.1373 44.0923 22.5254 44.2929Z" fill="#E4772F" stroke="white" stroke-width="0.2"/>
<path d="M19.4272 41.7885C19.7049 42.1263 20.2033 42.1746 20.5408 41.8977C20.8783 41.6204 20.9272 41.1219 20.6496 40.7841C20.5487 40.6609 20.4498 40.5332 20.3554 40.4038C20.0983 40.0507 19.6035 39.9724 19.2504 40.2296C18.897 40.4866 18.8191 40.9814 19.0762 41.3349C19.1887 41.489 19.3065 41.6414 19.4272 41.7885Z" fill="#E4772F" stroke="white" stroke-width="0.2"/>
<path d="M28.8984 1.58203H35.5169C35.8779 1.58203 36.1127 1.96065 35.952 2.28612C33.1979 7.87019 32.6199 13.8881 34.2344 20.1725C36.6907 29.7352 46.0284 34.6353 48.1011 40.7703C48.2412 41.1843 48.6894 41.4064 49.1039 41.2667C49.518 41.1267 49.74 40.678 49.6003 40.2639C47.3472 33.5955 38.1204 28.94 35.7667 19.7791C34.2493 13.8712 34.789 8.2212 37.3709 2.98608C38.0495 1.61046 37.0513 0 35.5169 0H28.8984C28.4613 0 28.1074 0.354309 28.1074 0.791015C28.1074 1.22813 28.4613 1.58203 28.8984 1.58203Z" fill="#E4772F" stroke="white" stroke-width="0.2"/>
<path d="M21.4357 51.9957C23.1088 53.3453 25.0946 54 27.0515 54C29.0406 54 31.0185 53.326 32.6677 51.9957C39.0412 54.7259 45.6539 54.3176 48.8238 48.0612C49.4715 46.7828 49.8752 45.5192 50.0248 44.3056C50.0779 43.8717 49.7697 43.477 49.3363 43.4238C48.9025 43.3699 48.5078 43.6784 48.4546 44.1123C48.3257 45.1583 47.985 46.2164 47.4124 47.346C44.1272 53.8311 37.1662 52.0731 33.9078 50.796C34.4908 50.1199 34.9938 49.3503 35.3967 48.5C35.9274 47.379 36.7921 46.5496 37.8308 46.1652C39.2175 45.6519 39.9714 46.2538 40.4761 47.6871C40.6211 48.0991 41.0727 48.3158 41.4847 48.1708C41.8971 48.0253 42.1133 47.5738 41.9683 47.1618C40.3381 42.5327 35.5904 44.3945 33.9667 47.8227C32.5738 50.7631 29.8373 52.418 27.0515 52.418C24.2352 52.418 21.516 50.735 20.1367 47.8227C18.5193 44.4073 13.7695 42.52 12.1351 47.1618C11.9901 47.5738 12.2063 48.0253 12.6188 48.1708C13.0307 48.3158 13.4823 48.0991 13.6273 47.6871C13.9182 46.8615 14.3038 46.3308 14.773 46.1104C15.6753 45.6869 17.7019 46.3783 18.7067 48.5C19.1096 49.3503 19.6123 50.1199 20.1956 50.796C16.9368 52.0731 9.97632 53.8315 6.6907 47.346C3.7454 41.5325 7.20155 37.8006 11.5769 33.0764C14.806 29.5897 18.4657 25.6379 19.8697 20.1725C21.4839 13.8881 20.9063 7.86978 18.1522 2.28612C17.9919 1.96106 18.2255 1.58203 18.5872 1.58203H25.2058C25.6429 1.58203 25.9969 1.22813 25.9969 0.791015C25.9969 0.354309 25.6429 0 25.2058 0H18.5872C17.053 0 16.0544 1.60963 16.7329 2.98608C19.3153 8.2212 19.8549 13.8712 18.3371 19.7791C17.0328 24.8568 13.6689 28.489 10.4159 32.0016C6.00392 36.7654 1.83666 41.2651 5.27923 48.0612C8.43752 54.2946 15.0133 54.7465 21.4357 51.9957Z" fill="#E4772F" stroke="white" stroke-width="0.2"/>
</g>
<defs>
<clipPath id="clip0_482_6807">
<rect width="54" height="54" fill="white"/>
</clipPath>
</defs>
</svg>
