<svg width="54" height="54" viewBox="0 0 54 54" fill="none" xmlns="http://www.w3.org/2000/svg">
<g clip-path="url(#clip0_482_6812)">
<path d="M53.0807 25.4729C49.8448 25.3597 46.6786 25.8355 43.7038 26.8518C43.6446 23.6746 43.0063 20.5598 41.7998 17.5738C41.6026 17.0863 41.0483 16.8507 40.5598 17.0476C38.6752 17.8089 36.9104 18.7706 35.2787 19.9204C33.3199 16.0571 30.766 12.5365 27.6723 9.44412C27.3002 9.07224 26.6973 9.07224 26.3256 9.44421C23.2306 12.5392 20.6769 16.0592 18.7196 19.919C17.0888 18.7698 15.3247 17.8086 13.4407 17.0476C12.9527 16.8506 12.398 17.0862 12.2008 17.5738C10.9922 20.5647 10.3536 23.6846 10.2961 26.8672C7.36188 25.8589 4.19983 25.3586 0.919224 25.4729C0.393462 25.4914 -0.0177604 25.9324 0.000591093 26.458C0.492814 40.5524 12.1145 51.6826 26.1093 51.6826C26.4046 51.6826 26.7026 51.6772 27.0001 51.6674C27.2983 51.6773 27.5948 51.6826 27.8909 51.6826C41.8845 51.6826 53.5074 40.5516 53.9995 26.458C54.0176 25.9324 53.6064 25.4913 53.0807 25.4729ZM13.6205 19.1953C16.3043 20.4033 18.7094 22.0624 20.7809 24.1363C23.0048 26.3589 24.7489 28.9565 25.9725 31.86C25.1563 33.9684 24.6208 36.1478 24.3712 38.3709C21.5635 33.6035 17.2903 29.815 12.1981 27.6048C12.1668 24.7333 12.6442 21.9115 13.6205 19.1953ZM1.95745 27.3618C8.06969 27.388 13.8614 29.6791 18.3572 33.8717C22.8533 38.0644 25.5431 43.6814 25.9952 49.7774C13.3952 49.7182 2.89539 39.9271 1.95745 27.3618ZM22.1279 22.7894C21.5307 22.1915 20.9071 21.6263 20.2596 21.0931C22.0042 17.5751 24.2667 14.348 26.9992 11.481C29.7302 14.3461 31.9926 17.5733 33.7385 21.0946C33.0917 21.6273 32.4686 22.1917 31.8718 22.789C29.8855 24.7742 28.2532 27.0385 26.9998 29.5388C25.7476 27.0398 24.1154 24.7755 22.1279 22.7894ZM26.9961 44.5296C26.7485 43.6475 26.4561 42.7848 26.1211 41.9438C26.1149 41.7404 26.1118 41.5253 26.1118 41.2895C26.1118 38.168 26.7077 35.1115 27.8827 32.2047C29.1136 29.1591 30.9087 26.4444 33.2188 24.1358C35.2913 22.062 37.6967 20.4032 40.3802 19.1953C41.3543 21.9055 41.8314 24.7209 41.8025 27.5859C39.0897 28.7595 36.5695 30.4028 34.3438 32.4784C30.7809 35.8007 28.2712 39.9531 26.9961 44.5296ZM28.0048 49.7774C28.457 43.6814 31.1465 38.0644 35.6427 33.8717C40.1389 29.6787 45.9297 27.3875 52.0426 27.3617C51.1044 39.9278 40.6059 49.7194 28.0048 49.7774Z" fill="#E4772F" stroke="white" stroke-width="0.3"/>
<path d="M1.48472 22.6895C2.01076 22.6895 2.43721 22.2631 2.43721 21.737C2.43721 21.211 2.01076 20.7845 1.48472 20.7845C0.958667 20.7845 0.532227 21.211 0.532227 21.737C0.532227 22.2631 0.958667 22.6895 1.48472 22.6895Z" fill="#E4772F" stroke="white" stroke-width="0.3"/>
<path d="M13.0853 12.1143C13.6113 12.1143 14.0378 11.6879 14.0378 11.1618C14.0378 10.6358 13.6113 10.2094 13.0853 10.2094C12.5592 10.2094 12.1328 10.6358 12.1328 11.1618C12.1328 11.6879 12.5592 12.1143 13.0853 12.1143Z" fill="#E4772F" stroke="white" stroke-width="0.3"/>
<path d="M26.9993 4.22175C27.5254 4.22175 27.9518 3.7953 27.9518 3.26926C27.9518 2.74321 27.5254 2.31677 26.9993 2.31677C26.4733 2.31677 26.0469 2.74321 26.0469 3.26926C26.0469 3.7953 26.4733 4.22175 26.9993 4.22175Z" fill="#E4772F" stroke="white" stroke-width="0.3"/>
<path d="M40.9163 12.1144C41.4424 12.1144 41.8688 11.6879 41.8688 11.1619C41.8688 10.6358 41.4424 10.2094 40.9163 10.2094C40.3903 10.2094 39.9639 10.6358 39.9639 11.1619C39.9639 11.6879 40.3903 12.1144 40.9163 12.1144Z" fill="#E4772F" stroke="white" stroke-width="0.3"/>
<path d="M52.513 22.6895C53.0391 22.6895 53.4655 22.2631 53.4655 21.737C53.4655 21.211 53.0391 20.7845 52.513 20.7845C51.987 20.7845 51.5605 21.211 51.5605 21.737C51.5605 22.2631 51.987 22.6895 52.513 22.6895Z" fill="#E4772F" stroke="white" stroke-width="0.3"/>
</g>
<defs>
<clipPath id="clip0_482_6812">
<rect width="54" height="54" fill="white"/>
</clipPath>
</defs>
</svg>
