<svg width="54" height="54" viewBox="0 0 54 54" fill="none" xmlns="http://www.w3.org/2000/svg">
<g clip-path="url(#clip0_482_6811)">
<path d="M41.85 27.9C38.1852 27.9 35.1576 30.654 34.7121 34.2H24.75V28.6875C25.686 28.4544 26.4951 27.8613 27.0054 27.0018L38.6334 7.3359C39.3138 6.1884 39.3255 4.8105 38.6649 3.6513C38.0043 2.4921 36.8136 1.8 35.4789 1.8H33.4341C32.9265 0.7398 31.8519 0 30.6 0C29.1636 0 25.65 1.1043 25.65 3.15C25.65 5.1957 29.1636 6.3 30.6 6.3C32.1822 6.3 33.4836 5.1228 33.7041 3.6H35.478C36.1575 3.6 36.7641 3.9528 37.0998 4.5432C37.4364 5.1327 37.4301 5.8347 37.0836 6.4197L25.4556 26.0856C25.1163 26.658 24.516 27 23.85 27C23.184 27 22.5837 26.658 22.2381 26.0766L10.2852 6.4188C9.93871 5.8347 9.93241 5.1327 10.269 4.5432C10.6056 3.9528 11.2122 3.6 11.8908 3.6H13.995C14.2164 5.1228 15.5178 6.3 17.1 6.3C18.5364 6.3 22.05 5.1957 22.05 3.15C22.05 1.1043 18.5364 0 17.1 0C15.8481 0 14.7735 0.7398 14.2659 1.8H11.8908C10.5561 1.8 9.36541 2.493 8.70481 3.6522C8.04421 4.8114 8.05591 6.1884 8.74171 7.3449L20.6955 27.0027C21.2049 27.8622 22.014 28.4544 22.95 28.6875V34.2H14.85C9.39151 34.2 4.95001 38.6415 4.95001 44.1C4.95001 49.5585 9.39151 54 14.85 54C20.3085 54 24.75 49.5585 24.75 44.1V36H34.7121C35.1576 39.546 38.1852 42.3 41.85 42.3C45.8199 42.3 49.05 39.0699 49.05 35.1C49.05 31.1301 45.8199 27.9 41.85 27.9ZM30.6 4.5C29.4894 4.5 27.5778 3.6099 27.4518 3.15C27.5778 2.6901 29.4894 1.8 30.6 1.8C31.3443 1.8 31.95 2.4057 31.95 3.15C31.95 3.8943 31.3443 4.5 30.6 4.5ZM17.1 1.8C18.2106 1.8 20.1222 2.6901 20.2482 3.15C20.1222 3.6099 18.2106 4.5 17.1 4.5C16.3557 4.5 15.75 3.8943 15.75 3.15C15.75 2.4057 16.3557 1.8 17.1 1.8ZM22.95 44.1C22.95 48.5667 19.3158 52.2 14.85 52.2C10.3842 52.2 6.75001 48.5667 6.75001 44.1C6.75001 39.6333 10.3842 36 14.85 36H22.95V44.1ZM41.85 40.5C38.8719 40.5 36.45 38.0781 36.45 35.1C36.45 32.1219 38.8719 29.7 41.85 29.7C44.8281 29.7 47.25 32.1219 47.25 35.1C47.25 38.0781 44.8281 40.5 41.85 40.5Z" fill="#E4772F" stroke="white" stroke-width="0.4"/>
<path d="M41.85 31.5C39.8646 31.5 38.25 33.1146 38.25 35.1C38.25 37.0854 39.8646 38.7 41.85 38.7C43.8354 38.7 45.45 37.0854 45.45 35.1C45.45 33.1146 43.8354 31.5 41.85 31.5ZM41.85 36.9C40.8573 36.9 40.05 36.0927 40.05 35.1C40.05 34.1073 40.8573 33.3 41.85 33.3C42.8427 33.3 43.65 34.1073 43.65 35.1C43.65 36.0927 42.8427 36.9 41.85 36.9Z" fill="#E4772F" stroke="white" stroke-width="0.4"/>
</g>
<defs>
<clipPath id="clip0_482_6811">
<rect width="54" height="54" fill="white"/>
</clipPath>
</defs>
</svg>
