<svg width="30" height="30" viewBox="0 0 30 30" fill="none" xmlns="http://www.w3.org/2000/svg">
<circle cx="15" cy="15" r="14.5" transform="rotate(90 15 15)" fill="white" stroke="#048741"/>
<path d=" M12.6278 10.2074L12.6217 10.2005L12.6154 10.194C12.4609 10.0334 12.4627 9.7693 12.6141 9.6131L12.6147 9.61243C12.7598 9.46218 12.9818 9.46343 13.1234 9.61073C13.1235 9.61085 13.1237 9.61098 13.1238 9.6111L17.9831 14.7071L17.9831 14.7071L17.9853 14.7094C18.1376 14.8671 18.1394 15.1308 17.984 15.2929L17.9831 15.2939L13.1244 20.3892C13.1242 20.3894 13.124 20.3897 13.1238 20.3899C12.9821 20.5364 12.7587 20.5373 12.615 20.3889C12.4609 20.2283 12.4628 19.9644 12.6141 19.8084L12.6212 19.801L12.6279 19.7934L16.6138 15.3316L16.9115 14.9984L16.6137 14.6653L12.6278 10.2074Z " fill="#048741" stroke="#048741"/>
</svg>
