<svg width="140" height="140" viewBox="0 0 140 140" fill="none" xmlns="http://www.w3.org/2000/svg">
<circle cx="70" cy="70" r="69.5" fill="#E0E2E7" fill-opacity="0.5" stroke="#E0E2E7"/>
<g clip-path="url(#clip0_550_7165)">
<path d="M81.7487 74.25C82.301 74.25 82.7487 74.6977 82.7487 75.25V78.5H85.9987C86.551 78.5 86.9987 78.9477 86.9987 79.5V80.3333C86.9987 80.8856 86.551 81.3333 85.9987 81.3333H82.7487V84.5833C82.7487 85.1356 82.301 85.5833 81.7487 85.5833H80.9154C80.3631 85.5833 79.9154 85.1356 79.9154 84.5833V81.3333H76.6654C76.1131 81.3333 75.6654 80.8856 75.6654 80.3333V79.5C75.6654 78.9477 76.1131 78.5 76.6654 78.5H79.9154V75.25C79.9154 74.6977 80.3631 74.25 80.9154 74.25H81.7487ZM82.76 57.25C83.5364 57.25 84.1654 57.8804 84.1654 58.6567V70.4167C84.1654 70.969 83.7176 71.4167 83.1654 71.4167H82.332C81.7797 71.4167 81.332 70.969 81.332 70.4167V60.0833H58.6654V79.9153L72.1249 66.457C72.5155 66.0665 73.1486 66.0666 73.5391 66.4571L76.7891 69.7071C76.9767 69.8946 77.082 70.149 77.082 70.4142V71.5935C77.082 72.4844 76.0049 72.9306 75.3749 72.3006L72.832 69.7578L62.6703 79.9167H71.832C72.3843 79.9167 72.832 80.3644 72.832 80.9167V81.75C72.832 82.3023 72.3843 82.75 71.832 82.75H57.2374C56.8645 82.7496 56.5071 82.6012 56.2436 82.3375C55.98 82.0737 55.832 81.7161 55.832 81.3432V58.6567C55.8346 58.2847 55.9835 57.9286 56.2464 57.6654C56.5094 57.4022 56.8653 57.253 57.2374 57.25H82.76ZM64.332 62.9167C65.0835 62.9167 65.8041 63.2152 66.3355 63.7465C66.8669 64.2779 67.1654 64.9986 67.1654 65.75C67.1654 66.5014 66.8669 67.2221 66.3355 67.7535C65.8041 68.2848 65.0835 68.5833 64.332 68.5833C63.5806 68.5833 62.8599 68.2848 62.3286 67.7535C61.7972 67.2221 61.4987 66.5014 61.4987 65.75C61.4987 64.9986 61.7972 64.2779 62.3286 63.7465C62.8599 63.2152 63.5806 62.9167 64.332 62.9167Z" fill="#909CB5"/>
</g>
<defs>
<clipPath id="clip0_550_7165">
<rect width="34" height="34" fill="white" transform="translate(53 53)"/>
</clipPath>
</defs>
</svg>
