<svg width="14" height="14" viewBox="0 0 14 14" fill="none" xmlns="http://www.w3.org/2000/svg">
<path d="M6.99922 0.700195C7.43414 0.700195 7.78672 1.05277 7.78672 1.4877V6.2127H12.5117C12.9466 6.2127 13.2992 6.56527 13.2992 7.0002C13.2992 7.43512 12.9466 7.7877 12.5117 7.7877H7.78672V12.5127C7.78672 12.9476 7.43414 13.3002 6.99922 13.3002C6.56429 13.3002 6.21172 12.9476 6.21172 12.5127V7.7877H1.48672C1.05179 7.7877 0.699219 7.43512 0.699219 7.0002C0.699219 6.56527 1.05179 6.2127 1.48672 6.2127H6.21172V1.4877C6.21172 1.05277 6.56429 0.700195 6.99922 0.700195Z" fill="white"/>
</svg>
