<svg width="24" height="24" viewBox="0 0 24 24" fill="none" xmlns="http://www.w3.org/2000/svg">
<g clip-path="url(#clip0_376_24546)">
<path d="M12 2.00006C14.717 2.00006 15.056 2.01006 16.122 2.06006C17.187 2.11006 17.912 2.27706 18.55 2.52506C19.21 2.77906 19.766 3.12306 20.322 3.67806C20.8305 4.17796 21.224 4.78265 21.475 5.45006C21.722 6.08706 21.89 6.81306 21.94 7.87806C21.987 8.94406 22 9.28306 22 12.0001C22 14.7171 21.99 15.0561 21.94 16.1221C21.89 17.1871 21.722 17.9121 21.475 18.5501C21.2247 19.2178 20.8311 19.8227 20.322 20.3221C19.822 20.8304 19.2173 21.2238 18.55 21.4751C17.913 21.7221 17.187 21.8901 16.122 21.9401C15.056 21.9871 14.717 22.0001 12 22.0001C9.283 22.0001 8.944 21.9901 7.878 21.9401C6.813 21.8901 6.088 21.7221 5.45 21.4751C4.78233 21.2245 4.17753 20.831 3.678 20.3221C3.16941 19.8222 2.77593 19.2175 2.525 18.5501C2.277 17.9131 2.11 17.1871 2.06 16.1221C2.013 15.0561 2 14.7171 2 12.0001C2 9.28306 2.01 8.94406 2.06 7.87806C2.11 6.81206 2.277 6.08806 2.525 5.45006C2.77524 4.78224 3.1688 4.17738 3.678 3.67806C4.17767 3.16929 4.78243 2.77579 5.45 2.52506C6.088 2.27706 6.812 2.11006 7.878 2.06006C8.944 2.01306 9.283 2.00006 12 2.00006ZM12 7.00006C10.6739 7.00006 9.40215 7.52685 8.46447 8.46453C7.52678 9.40221 7 10.674 7 12.0001C7 13.3261 7.52678 14.5979 8.46447 15.5356C9.40215 16.4733 10.6739 17.0001 12 17.0001C13.3261 17.0001 14.5979 16.4733 15.5355 15.5356C16.4732 14.5979 17 13.3261 17 12.0001C17 10.674 16.4732 9.40221 15.5355 8.46453C14.5979 7.52685 13.3261 7.00006 12 7.00006V7.00006ZM18.5 6.75006C18.5 6.41854 18.3683 6.1006 18.1339 5.86618C17.8995 5.63176 17.5815 5.50006 17.25 5.50006C16.9185 5.50006 16.6005 5.63176 16.3661 5.86618C16.1317 6.1006 16 6.41854 16 6.75006C16 7.08158 16.1317 7.39952 16.3661 7.63395C16.6005 7.86837 16.9185 8.00006 17.25 8.00006C17.5815 8.00006 17.8995 7.86837 18.1339 7.63395C18.3683 7.39952 18.5 7.08158 18.5 6.75006ZM12 9.00006C12.7956 9.00006 13.5587 9.31613 14.1213 9.87874C14.6839 10.4414 15 11.2044 15 12.0001C15 12.7957 14.6839 13.5588 14.1213 14.1214C13.5587 14.684 12.7956 15.0001 12 15.0001C11.2044 15.0001 10.4413 14.684 9.87868 14.1214C9.31607 13.5588 9 12.7957 9 12.0001C9 11.2044 9.31607 10.4414 9.87868 9.87874C10.4413 9.31613 11.2044 9.00006 12 9.00006V9.00006Z" fill="white"/>
</g>
<defs>
<clipPath id="clip0_376_24546">
<rect width="24" height="24" fill="white"/>
</clipPath>
</defs>
</svg>
