<svg width="32" height="32" viewBox="0 0 32 32" fill="none" xmlns="http://www.w3.org/2000/svg">
<circle cx="16" cy="16" r="16" fill="#048741"/>
<path d="M16.0002 7.11133C18.4153 7.11133 18.7167 7.12022 19.6642 7.16466C20.6109 7.20911 21.2553 7.35755 21.8224 7.57799C22.4091 7.80377 22.9033 8.10955 23.3976 8.60288C23.8495 9.04724 24.1993 9.58474 24.4224 10.178C24.642 10.7442 24.7913 11.3895 24.8358 12.3362C24.8776 13.2838 24.8891 13.5851 24.8891 16.0002C24.8891 18.4153 24.8802 18.7167 24.8358 19.6642C24.7913 20.6109 24.642 21.2553 24.4224 21.8224C24.1999 22.416 23.8501 22.9537 23.3976 23.3975C22.9531 23.8494 22.4156 24.1991 21.8224 24.4224C21.2562 24.642 20.6109 24.7913 19.6642 24.8358C18.7167 24.8775 18.4153 24.8891 16.0002 24.8891C13.5851 24.8891 13.2838 24.8802 12.3362 24.8358C11.3896 24.7913 10.7451 24.642 10.178 24.4224C9.58451 24.1997 9.04691 23.8499 8.60288 23.3975C8.1508 22.9533 7.80104 22.4157 7.57799 21.8224C7.35755 21.2562 7.20911 20.6109 7.16466 19.6642C7.12288 18.7167 7.11133 18.4153 7.11133 16.0002C7.11133 13.5851 7.12022 13.2838 7.16466 12.3362C7.20911 11.3887 7.35755 10.7451 7.57799 10.178C7.80043 9.58438 8.15026 9.04672 8.60288 8.60288C9.04704 8.15064 9.5846 7.80087 10.178 7.57799C10.7451 7.35755 11.3887 7.20911 12.3362 7.16466C13.2838 7.12288 13.5851 7.11133 16.0002 7.11133ZM16.0002 11.5558C14.8215 11.5558 13.691 12.024 12.8575 12.8575C12.024 13.691 11.5558 14.8215 11.5558 16.0002C11.5558 17.179 12.024 18.3094 12.8575 19.1429C13.691 19.9764 14.8215 20.4447 16.0002 20.4447C17.179 20.4447 18.3094 19.9764 19.1429 19.1429C19.9764 18.3094 20.4447 17.179 20.4447 16.0002C20.4447 14.8215 19.9764 13.691 19.1429 12.8575C18.3094 12.024 17.179 11.5558 16.0002 11.5558ZM21.778 11.3335C21.778 11.0389 21.6609 10.7562 21.4526 10.5479C21.2442 10.3395 20.9616 10.2224 20.6669 10.2224C20.3722 10.2224 20.0896 10.3395 19.8812 10.5479C19.6728 10.7562 19.5558 11.0389 19.5558 11.3335C19.5558 11.6282 19.6728 11.9109 19.8812 12.1192C20.0896 12.3276 20.3722 12.4447 20.6669 12.4447C20.9616 12.4447 21.2442 12.3276 21.4526 12.1192C21.6609 11.9109 21.778 11.6282 21.778 11.3335ZM16.0002 13.3335C16.7075 13.3335 17.3857 13.6145 17.8858 14.1146C18.3859 14.6147 18.6669 15.293 18.6669 16.0002C18.6669 16.7075 18.3859 17.3857 17.8858 17.8858C17.3857 18.3859 16.7075 18.6669 16.0002 18.6669C15.293 18.6669 14.6147 18.3859 14.1146 17.8858C13.6145 17.3857 13.3336 16.7075 13.3336 16.0002C13.3336 15.293 13.6145 14.6147 14.1146 14.1146C14.6147 13.6145 15.293 13.3335 16.0002 13.3335Z" fill="white"/>
</svg>
