<svg width="14" height="15" viewBox="0 0 14 15" fill="none" xmlns="http://www.w3.org/2000/svg">
<path d="M13.125 13.5H0.875C0.642936 13.5 0.420376 13.579 0.256282 13.7197C0.0921874 13.8603 0 14.0511 0 14.25C0 14.4489 0.0921874 14.6397 0.256282 14.7803C0.420376 14.921 0.642936 15 0.875 15H13.125C13.3571 15 13.5796 14.921 13.7437 14.7803C13.9078 14.6397 14 14.4489 14 14.25C14 14.0511 13.9078 13.8603 13.7437 13.7197C13.5796 13.579 13.3571 13.5 13.125 13.5ZM6.37875 11.7825C6.46197 11.8508 6.56009 11.9043 6.6675 11.94C6.77224 11.9797 6.88549 12.0002 7 12.0002C7.11451 12.0002 7.22776 11.9797 7.3325 11.94C7.43991 11.9043 7.53803 11.8508 7.62125 11.7825L11.1212 8.7825C11.286 8.64127 11.3786 8.44973 11.3786 8.25C11.3786 8.05027 11.286 7.85873 11.1212 7.7175C10.9565 7.57627 10.733 7.49693 10.5 7.49693C10.267 7.49693 10.0435 7.57627 9.87875 7.7175L7.875 9.4425V0.75C7.875 0.551088 7.78281 0.360322 7.61872 0.21967C7.45462 0.0790176 7.23206 0 7 0C6.76794 0 6.54538 0.0790176 6.38128 0.21967C6.21719 0.360322 6.125 0.551088 6.125 0.75V9.4425L4.12125 7.7175C4.03967 7.64757 3.94281 7.5921 3.83622 7.55426C3.72962 7.51641 3.61538 7.49693 3.5 7.49693C3.38462 7.49693 3.27038 7.51641 3.16378 7.55426C3.05719 7.5921 2.96033 7.64757 2.87875 7.7175C2.79717 7.78743 2.73245 7.87045 2.6883 7.96181C2.64415 8.05318 2.62142 8.15111 2.62142 8.25C2.62142 8.34889 2.64415 8.44682 2.6883 8.53819C2.73245 8.62955 2.79717 8.71257 2.87875 8.7825L6.37875 11.7825Z" fill="white"/>
</svg>
