<svg width="22" height="20" viewBox="0 0 22 20" fill="none" xmlns="http://www.w3.org/2000/svg">
<g filter="url(#filter0_d_4201_1871)">
<path d="M16.8326 16.8822L19.1186 14.5941C19.3979 14.3148 19.5547 13.9409 19.5547 13.5456C19.5547 13.1503 19.4 12.7765 19.1186 12.4972L16.6586 10.0329C16.3793 9.75364 16.0033 9.5968 15.608 9.5968C15.2105 9.5968 14.8389 9.75149 14.5574 10.0329L12.6303 11.9579C11.6085 11.5194 10.6801 10.8893 9.89531 10.1017C9.10254 9.31321 8.47734 8.39153 8.03477 7.36887L9.96191 5.44387C10.2412 5.16458 10.398 4.79075 10.398 4.39543C10.3988 4.20045 10.3606 4.00728 10.2857 3.82725C10.2108 3.64722 10.1007 3.48394 9.96191 3.347L7.50195 0.88059C7.22266 0.601293 6.84668 0.444457 6.45137 0.444457C6.05391 0.444457 5.68223 0.599145 5.40078 0.88059L3.11484 3.16653C2.63789 3.64348 2.36504 4.3009 2.36504 4.97551C2.36504 5.11516 2.37578 5.25051 2.39941 5.38801C2.86777 8.23254 4.38242 11.0556 6.65976 13.3351C8.94141 15.6124 11.7645 17.1249 14.6111 17.5976C15.4189 17.7329 16.2504 17.4622 16.8326 16.8822V16.8822ZM14.8668 16.0743C12.3338 15.6554 9.80723 14.2933 7.75547 12.2415C5.70371 10.1898 4.3416 7.66536 3.92266 5.13235C3.86895 4.81438 3.97637 4.48782 4.20625 4.25579L6.45137 2.01067L8.83398 4.39114L6.25586 6.96497L6.23652 6.9843L6.4084 7.44836C6.92573 8.85544 7.74284 10.1332 8.80309 11.1931C9.86334 12.253 11.1414 13.0696 12.5486 13.5865L13.0127 13.7583L15.6059 11.163L17.9885 13.5435L15.7434 15.7886C15.5113 16.0206 15.1848 16.1281 14.8668 16.0743Z" fill="#048741"/>
</g>
<defs>
<filter id="filter0_d_4201_1871" x="-1.63477" y="0.444458" width="25.1895" height="25.1874" filterUnits="userSpaceOnUse" color-interpolation-filters="sRGB">
<feFlood flood-opacity="0" result="BackgroundImageFix"/>
<feColorMatrix in="SourceAlpha" type="matrix" values="0 0 0 0 0 0 0 0 0 0 0 0 0 0 0 0 0 0 127 0" result="hardAlpha"/>
<feOffset dy="4"/>
<feGaussianBlur stdDeviation="2"/>
<feComposite in2="hardAlpha" operator="out"/>
<feColorMatrix type="matrix" values="0 0 0 0 0 0 0 0 0 0 0 0 0 0 0 0 0 0 0.25 0"/>
<feBlend mode="normal" in2="BackgroundImageFix" result="effect1_dropShadow_4201_1871"/>
<feBlend mode="normal" in="SourceGraphic" in2="effect1_dropShadow_4201_1871" result="shape"/>
</filter>
</defs>
</svg>
