<svg width="18" height="18" viewBox="0 0 18 18" fill="none" xmlns="http://www.w3.org/2000/svg">
<path d="M4.83268 7.33317C4.66786 7.33317 4.50675 7.38204 4.36971 7.47361C4.23267 7.56518 4.12586 7.69533 4.06278 7.8476C3.99971 7.99987 3.98321 8.16743 4.01536 8.32908C4.04752 8.49073 4.12688 8.63922 4.24343 8.75576C4.35997 8.8723 4.50846 8.95167 4.67011 8.98382C4.83176 9.01598 4.99931 8.99948 5.15159 8.9364C5.30386 8.87333 5.43401 8.76652 5.52557 8.62948C5.61714 8.49244 5.66602 8.33132 5.66602 8.1665C5.66602 7.94549 5.57822 7.73353 5.42194 7.57725C5.26566 7.42097 5.0537 7.33317 4.83268 7.33317ZM14.8327 3.99984H13.9993V1.49984C13.9993 1.27882 13.9116 1.06686 13.7553 0.910582C13.599 0.754301 13.387 0.666504 13.166 0.666504H4.83268C4.61167 0.666504 4.39971 0.754301 4.24343 0.910582C4.08715 1.06686 3.99935 1.27882 3.99935 1.49984V3.99984H3.16602C2.50297 3.99984 1.86709 4.26323 1.39825 4.73207C0.929408 5.20091 0.666016 5.8368 0.666016 6.49984V11.4998C0.666016 12.1629 0.929408 12.7988 1.39825 13.2676C1.86709 13.7364 2.50297 13.9998 3.16602 13.9998H3.99935V16.4998C3.99935 16.7208 4.08715 16.9328 4.24343 17.0891C4.39971 17.2454 4.61167 17.3332 4.83268 17.3332H13.166C13.387 17.3332 13.599 17.2454 13.7553 17.0891C13.9116 16.9328 13.9993 16.7208 13.9993 16.4998V13.9998H14.8327C15.4957 13.9998 16.1316 13.7364 16.6004 13.2676C17.0693 12.7988 17.3327 12.1629 17.3327 11.4998V6.49984C17.3327 5.8368 17.0693 5.20091 16.6004 4.73207C16.1316 4.26323 15.4957 3.99984 14.8327 3.99984ZM5.66602 2.33317H12.3327V3.99984H5.66602V2.33317ZM12.3327 15.6665H5.66602V12.3332H12.3327V15.6665ZM15.666 11.4998C15.666 11.7209 15.5782 11.9328 15.4219 12.0891C15.2657 12.2454 15.0537 12.3332 14.8327 12.3332H13.9993V11.4998C13.9993 11.2788 13.9116 11.0669 13.7553 10.9106C13.599 10.7543 13.387 10.6665 13.166 10.6665H4.83268C4.61167 10.6665 4.39971 10.7543 4.24343 10.9106C4.08715 11.0669 3.99935 11.2788 3.99935 11.4998V12.3332H3.16602C2.945 12.3332 2.73304 12.2454 2.57676 12.0891C2.42048 11.9328 2.33268 11.7209 2.33268 11.4998V6.49984C2.33268 6.27882 2.42048 6.06686 2.57676 5.91058C2.73304 5.7543 2.945 5.6665 3.16602 5.6665H14.8327C15.0537 5.6665 15.2657 5.7543 15.4219 5.91058C15.5782 6.06686 15.666 6.27882 15.666 6.49984V11.4998Z" fill="white"/>
</svg>
