<svg width="24" height="24" viewBox="0 0 24 24" fill="none" xmlns="http://www.w3.org/2000/svg">
<g clip-path="url(#clip0_376_24548)">
<path d="M2.00401 22.0001L3.35601 17.0321C2.46515 15.5049 1.99711 13.7681 2.00001 12.0001C2.00001 6.47706 6.47701 2.00006 12 2.00006C17.523 2.00006 22 6.47706 22 12.0001C22 17.5231 17.523 22.0001 12 22.0001C10.2328 22.0029 8.49667 21.5352 6.97001 20.6451L2.00401 22.0001ZM8.39101 7.30806C8.26188 7.31608 8.13569 7.35009 8.02001 7.40806C7.91153 7.46949 7.81251 7.54629 7.72601 7.63606C7.60601 7.74906 7.53801 7.84706 7.46501 7.94206C7.09542 8.42306 6.89662 9.01348 6.90001 9.62006C6.90201 10.1101 7.03001 10.5871 7.23001 11.0331C7.63901 11.9351 8.31201 12.8901 9.20101 13.7751C9.41501 13.9881 9.62401 14.2021 9.84901 14.4011C10.9524 15.3725 12.2673 16.0731 13.689 16.4471L14.258 16.5341C14.443 16.5441 14.628 16.5301 14.814 16.5211C15.1053 16.506 15.3896 16.4272 15.647 16.2901C15.813 16.2021 15.891 16.1581 16.03 16.0701C16.03 16.0701 16.073 16.0421 16.155 15.9801C16.29 15.8801 16.373 15.8091 16.485 15.6921C16.568 15.6061 16.64 15.5051 16.695 15.3901C16.773 15.2271 16.851 14.9161 16.883 14.6571C16.907 14.4591 16.9 14.3511 16.897 14.2841C16.893 14.1771 16.804 14.0661 16.707 14.0191L16.125 13.7581C16.125 13.7581 15.255 13.3791 14.724 13.1371C14.668 13.1127 14.608 13.0988 14.547 13.0961C14.4786 13.089 14.4095 13.0967 14.3443 13.1186C14.2791 13.1405 14.2193 13.1761 14.169 13.2231V13.2211C14.164 13.2211 14.097 13.2781 13.374 14.1541C13.3325 14.2098 13.2754 14.252 13.2098 14.2751C13.1443 14.2983 13.0733 14.3014 13.006 14.2841C12.9409 14.2666 12.877 14.2446 12.815 14.2181C12.691 14.1661 12.648 14.1461 12.563 14.1091L12.558 14.1071C11.9859 13.8573 11.4562 13.5199 10.988 13.1071C10.862 12.9971 10.745 12.8771 10.625 12.7611C10.2316 12.3843 9.88873 11.9581 9.60501 11.4931L9.54601 11.3981C9.50364 11.3342 9.46937 11.2654 9.44401 11.1931C9.40601 11.0461 9.50501 10.9281 9.50501 10.9281C9.50501 10.9281 9.74801 10.6621 9.86101 10.5181C9.9551 10.3984 10.0429 10.2739 10.124 10.1451C10.242 9.95506 10.279 9.76006 10.217 9.60906C9.93701 8.92506 9.64701 8.24406 9.34901 7.56806C9.29001 7.43406 9.11501 7.33806 8.95601 7.31906C8.90201 7.31306 8.84801 7.30706 8.79401 7.30306C8.65972 7.29639 8.52515 7.29773 8.39101 7.30706V7.30806Z" fill="white"/>
</g>
<defs>
<clipPath id="clip0_376_24548">
<rect width="24" height="24" fill="white"/>
</clipPath>
</defs>
</svg>
