<svg width="32" height="32" viewBox="0 0 32 32" fill="none" xmlns="http://www.w3.org/2000/svg">
<circle cx="16" cy="16" r="16" fill="#048741"/>
<path d="M24.8891 16.0002C24.8891 20.9094 20.9094 24.8891 16.0002 24.8891C11.091 24.8891 7.11133 20.9094 7.11133 16.0002C7.11133 11.091 11.091 7.11133 16.0002 7.11133C20.9094 7.11133 24.8891 11.091 24.8891 16.0002ZM16.3188 13.6735C15.4542 14.0331 13.7263 14.7774 11.135 15.9064C10.7142 16.0737 10.4938 16.2374 10.4737 16.3975C10.4398 16.668 10.7786 16.7745 11.2399 16.9196C11.3026 16.9393 11.3676 16.9598 11.4343 16.9814C11.8881 17.129 12.4987 17.3016 12.816 17.3084C13.1039 17.3146 13.4252 17.196 13.78 16.9524C16.2011 15.318 17.4509 14.492 17.5294 14.4742C17.5847 14.4616 17.6614 14.4458 17.7134 14.492C17.7654 14.5382 17.7603 14.6257 17.7548 14.6491C17.7212 14.7922 16.3915 16.0285 15.7033 16.6682C15.4888 16.8677 15.3366 17.0092 15.3055 17.0415C15.2358 17.1138 15.1648 17.1823 15.0965 17.2481C14.6749 17.6546 14.3587 17.9594 15.114 18.4571C15.477 18.6963 15.7675 18.8941 16.0573 19.0915C16.3737 19.307 16.6894 19.5219 17.0978 19.7896C17.2018 19.8578 17.3012 19.9287 17.398 19.9977C17.7662 20.2602 18.0971 20.4961 18.5059 20.4585C18.7434 20.4366 18.9888 20.2133 19.1134 19.5472C19.4078 17.9729 19.9867 14.5621 20.1204 13.1565C20.1321 13.0334 20.1174 12.8758 20.1056 12.8066C20.0937 12.7374 20.069 12.6389 19.9791 12.5659C19.8726 12.4795 19.7081 12.4613 19.6346 12.4625C19.3003 12.4684 18.7873 12.6468 16.3188 13.6735Z" fill="#FFFCFC"/>
</svg>
