<svg width="28" height="28" viewBox="0 0 28 28" fill="none" xmlns="http://www.w3.org/2000/svg">
<g clip-path="url(#clip0_550_7141)">
<path d="M9.33464 3.5V14C9.33464 15.2377 9.8263 16.4247 10.7015 17.2998C11.5766 18.175 12.7636 18.6667 14.0013 18.6667C15.239 18.6667 16.426 18.175 17.3011 17.2998C18.1763 16.4247 18.668 15.2377 18.668 14V3.5H21.0013V14C21.0013 15.8565 20.2638 17.637 18.951 18.9497C17.6383 20.2625 15.8578 21 14.0013 21C12.1448 21 10.3643 20.2625 9.05155 18.9497C7.7388 17.637 7.0013 15.8565 7.0013 14V3.5H9.33464ZM4.66797 23.3333H23.3346V25.6667H4.66797V23.3333Z" fill="#292929"/>
</g>
<defs>
<clipPath id="clip0_550_7141">
<rect width="28" height="28" fill="white"/>
</clipPath>
</defs>
</svg>
