<svg width="24" height="24" viewBox="0 0 24 24" fill="none" xmlns="http://www.w3.org/2000/svg">
<path d="M22 12C22 17.5228 17.5228 22 12 22C6.47715 22 2 17.5228 2 12C2 6.47715 6.47715 2 12 2C17.5228 2 22 6.47715 22 12ZM12.3584 9.38249C11.3858 9.78704 9.44183 10.6244 6.52663 11.8945C6.05324 12.0827 5.80527 12.2669 5.78269 12.447C5.74454 12.7513 6.12565 12.8711 6.64461 13.0343C6.7152 13.0565 6.78835 13.0795 6.86333 13.1039C7.37391 13.2698 8.06074 13.464 8.41779 13.4717C8.74167 13.4787 9.10316 13.3452 9.50225 13.0712C12.226 11.2325 13.632 10.3032 13.7203 10.2832C13.7826 10.2691 13.8689 10.2513 13.9274 10.3032C13.9858 10.3552 13.9801 10.4536 13.9739 10.48C13.9361 10.641 12.4402 12.0318 11.666 12.7515C11.4246 12.9759 11.2534 13.1351 11.2184 13.1714C11.1401 13.2528 11.0602 13.3298 10.9834 13.4039C10.509 13.8611 10.1533 14.2041 11.0031 14.764C11.4114 15.0331 11.7382 15.2556 12.0642 15.4777C12.4202 15.7201 12.7753 15.9619 13.2347 16.2631C13.3518 16.3398 13.4636 16.4195 13.5725 16.4971C13.9868 16.7925 14.359 17.0579 14.8189 17.0156C15.0861 16.991 15.3621 16.7397 15.5023 15.9903C15.8336 14.2193 16.4847 10.3821 16.6352 8.80086C16.6484 8.66232 16.6318 8.48502 16.6185 8.40719C16.6052 8.32936 16.5774 8.21847 16.4762 8.13638C16.3564 8.03916 16.1714 8.01866 16.0887 8.02012C15.7126 8.02675 15.1355 8.2274 12.3584 9.38249Z" fill="white"/>
</svg>
