<svg width="32" height="32" viewBox="0 0 32 32" fill="none" xmlns="http://www.w3.org/2000/svg">
<circle cx="16" cy="16" r="16" fill="#048741"/>
<path d="M7.1149 24.8891L8.31667 20.4731C7.5248 19.1156 7.10876 17.5718 7.11134 16.0002C7.11134 11.0909 11.0909 7.11133 16.0002 7.11133C20.9096 7.11133 24.8891 11.0909 24.8891 16.0002C24.8891 20.9095 20.9096 24.8891 16.0002 24.8891C14.4294 24.8916 12.8861 24.4759 11.5291 23.6847L7.1149 24.8891ZM12.7922 11.8296C12.6774 11.8367 12.5653 11.8669 12.4625 11.9184C12.366 11.973 12.278 12.0413 12.2011 12.1211C12.0945 12.2215 12.034 12.3087 11.9691 12.3931C11.6406 12.8207 11.4639 13.3455 11.4669 13.8847C11.4687 14.3202 11.5825 14.7442 11.7602 15.1407C12.1238 15.9424 12.722 16.7913 13.5122 17.578C13.7025 17.7673 13.8882 17.9576 14.0882 18.1344C15.069 18.998 16.2378 19.6207 17.5016 19.9531L18.0073 20.0304C18.1718 20.0393 18.3362 20.0269 18.5016 20.0189C18.7604 20.0055 19.0132 19.9354 19.242 19.8135C19.3896 19.7353 19.4589 19.6962 19.5825 19.618C19.5825 19.618 19.6207 19.5931 19.6936 19.538C19.8136 19.4491 19.8873 19.386 19.9869 19.282C20.0607 19.2056 20.1247 19.1158 20.1736 19.0135C20.2429 18.8687 20.3122 18.5922 20.3407 18.362C20.362 18.186 20.3558 18.09 20.3531 18.0304C20.3496 17.9353 20.2705 17.8367 20.1842 17.7949L19.6669 17.5629C19.6669 17.5629 18.8936 17.226 18.4216 17.0109C18.3718 16.9892 18.3185 16.9768 18.2642 16.9744C18.2034 16.9682 18.142 16.975 18.084 16.9945C18.0261 17.014 17.9729 17.0456 17.9282 17.0873V17.0855C17.9238 17.0855 17.8642 17.1362 17.2216 17.9149C17.1847 17.9644 17.1339 18.0019 17.0756 18.0225C17.0174 18.0431 16.9543 18.0458 16.8945 18.0304C16.8365 18.015 16.7798 17.9953 16.7247 17.9718C16.6145 17.9256 16.5762 17.9078 16.5007 17.8749L16.4962 17.8731C15.9877 17.6511 15.5169 17.3512 15.1007 16.9842C14.9887 16.8864 14.8847 16.7798 14.778 16.6767C14.4283 16.3418 14.1235 15.9629 13.8713 15.5496L13.8189 15.4651C13.7812 15.4084 13.7508 15.3472 13.7282 15.2829C13.6945 15.1522 13.7825 15.0473 13.7825 15.0473C13.7825 15.0473 13.9985 14.8109 14.0989 14.6829C14.1825 14.5765 14.2606 14.4658 14.3327 14.3513C14.4376 14.1824 14.4705 14.0091 14.4153 13.8749C14.1665 13.2669 13.9087 12.6616 13.6438 12.0607C13.5913 11.9415 13.4358 11.8562 13.2945 11.8393C13.2465 11.834 13.1985 11.8287 13.1505 11.8251C13.0311 11.8192 12.9115 11.8204 12.7922 11.8287V11.8296Z" fill="white"/>
</svg>
