<svg width="16" height="11" viewBox="0 0 16 11" fill="none" xmlns="http://www.w3.org/2000/svg">
<path d="M0.98 11V0.92H2.464L7.427 8.41V0.92H8.911V11H7.427L2.464 3.503V11H0.98ZM12.509 5.75C12.047 5.75 11.6247 5.638 11.242 5.414C10.8593 5.18533 10.5537 4.882 10.325 4.504C10.101 4.12133 9.989 3.69667 9.989 3.23C9.989 2.77267 10.1057 2.35267 10.339 1.97C10.5723 1.58733 10.8803 1.28167 11.263 1.053C11.6457 0.824333 12.061 0.71 12.509 0.71C12.971 0.71 13.391 0.824333 13.769 1.053C14.1517 1.277 14.4573 1.58033 14.686 1.963C14.9147 2.341 15.029 2.76333 15.029 3.23C15.029 3.69667 14.9147 4.12133 14.686 4.504C14.4573 4.882 14.1517 5.18533 13.769 5.414C13.391 5.638 12.971 5.75 12.509 5.75ZM12.509 4.483C12.733 4.483 12.9407 4.427 13.132 4.315C13.3233 4.19833 13.475 4.04433 13.587 3.853C13.7037 3.66167 13.762 3.454 13.762 3.23C13.762 3.006 13.7037 2.79833 13.587 2.607C13.475 2.41567 13.3233 2.264 13.132 2.152C12.9407 2.03533 12.733 1.977 12.509 1.977C12.285 1.977 12.0773 2.03533 11.886 2.152C11.6993 2.264 11.5477 2.41567 11.431 2.607C11.3143 2.79833 11.256 3.006 11.256 3.23C11.256 3.454 11.3143 3.66167 11.431 3.853C11.5477 4.04433 11.6993 4.19833 11.886 4.315C12.0727 4.427 12.2803 4.483 12.509 4.483ZM10.409 7.528V6.352H14.609V7.528H10.409Z" fill="#222222"/>
</svg>
