<svg width="75" height="14" viewBox="0 0 75 14" fill="none" xmlns="http://www.w3.org/2000/svg">
<path d="M7 0L8.5716 4.83688H13.6574L9.5429 7.82624L11.1145 12.6631L7 9.67376L2.8855 12.6631L4.4571 7.82624L0.342604 4.83688H5.4284L7 0Z" fill="#FAB100"/>
<path d="M22.167 0L23.7386 4.83688H28.8244L24.7099 7.82624L26.2815 12.6631L22.167 9.67376L18.0525 12.6631L19.6241 7.82624L15.5096 4.83688H20.5954L22.167 0Z" fill="#FAB100"/>
<path d="M37.333 0L38.9046 4.83688H43.9904L39.8759 7.82624L41.4475 12.6631L37.333 9.67376L33.2185 12.6631L34.7901 7.82624L30.6756 4.83688H35.7614L37.333 0Z" fill="#FAB100"/>
<path d="M52.5 0L54.0716 4.83688H59.1574L55.0429 7.82624L56.6145 12.6631L52.5 9.67376L48.3855 12.6631L49.9571 7.82624L45.8426 4.83688H50.9284L52.5 0Z" fill="#FAB100"/>
<path d="M67.667 0L69.2386 4.83688H74.3244L70.2099 7.82624L71.7815 12.6631L67.667 9.67376L63.5525 12.6631L65.1241 7.82624L61.0096 4.83688H66.0954L67.667 0Z" fill="#FAB100"/>
</svg>
