<svg width="14" height="14" viewBox="0 0 14 14" fill="none" xmlns="http://www.w3.org/2000/svg">
<path d="M7 5.44469L11.7376 0.707107C12.1281 0.316583 12.7613 0.316583 13.1518 0.707107L13.2929 0.848204C13.6834 1.23873 13.6834 1.87189 13.2929 2.26242L8.55531 7L13.2929 11.7376C13.6834 12.1281 13.6834 12.7613 13.2929 13.1518L13.1518 13.2929C12.7613 13.6834 12.1281 13.6834 11.7376 13.2929L7 8.55531L2.26242 13.2929C1.87189 13.6834 1.23873 13.6834 0.848204 13.2929L0.707107 13.1518C0.316582 12.7613 0.316582 12.1281 0.707107 11.7376L5.44469 7L0.707107 2.26242C0.316583 1.87189 0.316583 1.23873 0.707107 0.848204L0.848204 0.707107C1.23873 0.316582 1.87189 0.316582 2.26242 0.707107L7 5.44469Z" fill="#BDBDBD"/>
</svg>
